<?xml version="1.0" encoding="UTF-8"?>
<svg width="70px" height="70px" viewBox="0 0 70 70" version="1.1" xmlns="http://www.w3.org/2000/svg" xmlns:xlink="http://www.w3.org/1999/xlink">
    <title>百度</title>
    <g id="页面-1" stroke="none" stroke-width="1" fill="none" fill-rule="evenodd">
        <g id="百度">
            <rect id="矩形备份-28" fill="#4E6EF2" x="0" y="0" width="70" height="70" rx="15"></rect>
            <path d="M27.2469918,24.3534695 C27.9877747,24.9708046 28.9755013,25.3411961 29.8397801,25.2177001 C30.8275067,25.2177001 31.6917373,24.7238609 32.4325202,24.1065258 C33.2968473,23.3657429 33.9140859,22.3780163 34.4079733,21.266842 C35.2722522,19.1678446 35.2722522,16.5751046 34.5314693,14.3527077 C34.0375819,12.871142 33.1733513,11.5130239 31.938681,10.6487933 C31.1978981,10.1549059 30.0866756,9.90801046 29.098949,10.0314582 C28.4816621,10.1549059 27.8643269,10.4018496 27.2469918,10.7722411 C26.1358175,11.5130239 25.3949864,12.7476942 24.9010989,13.9823645 C24.2838121,16.2047131 24.1603161,18.42711 24.7776995,20.6495069 C25.2715386,22.0076249 26.0123215,23.3657429 27.2469918,24.3534212 L27.2469918,24.3534695 Z M39.5935499,24.4769172 C40.4578288,25.2177001 41.5690031,25.7115875 42.6802257,25.7115875 C43.667904,25.8350352 44.5321829,25.5881398 45.3964135,25.0942524 C46.2606923,24.6004132 47.0015234,23.8595821 47.4953626,22.9953515 C48.1126978,22.0076249 48.6065369,21.0198983 48.9769284,19.9086758 C49.2238721,19.0444452 49.3473198,18.0567186 49.2238721,17.068992 C49.1003761,15.710874 48.4830892,14.4762037 47.6188103,13.3650294 C47.0014752,12.6242465 46.2606923,11.8834636 45.3964617,11.5130239 C44.7791266,11.2661285 44.0382954,11.0191848 43.4209603,11.1426325 C42.5567297,11.2661285 41.8159468,11.7599676 41.1986117,12.2538551 C40.3343328,12.9946379 39.5935499,13.8588685 39.0996625,14.8465951 C38.6058234,15.710874 38.1119842,16.6986006 37.9884882,17.8097749 C37.8650405,19.0444452 37.8650405,20.2791154 38.1119842,21.3902898 C38.3588797,22.5014641 38.7292711,23.6126384 39.5935499,24.4769655 L39.5935499,24.4769172 Z M22.4318066,34.6011268 C23.2961337,33.8603439 23.7899729,32.872569 24.1603643,31.8848425 C24.6542035,30.279829 24.6542035,28.6747673 24.5307558,27.0697055 C24.5307558,26.4523704 24.2838121,25.8350352 24.0368683,25.2177001 C23.4195332,23.8595821 22.3083589,22.62496 20.9502409,21.8841289 C19.8390666,21.3902898 18.7278923,21.143346 17.7401174,21.3902898 C16.5054954,21.5137375 15.5177688,22.3780163 14.7769859,23.3657429 C13.7892593,24.7238609 13.2954202,26.4524187 13.0484282,28.0574321 C12.9249805,29.0451587 13.0484282,30.0328853 13.2953719,31.0205636 C13.6657634,32.5021776 14.4065462,33.8602956 15.5177205,34.8480222 C16.3820477,35.5888051 17.493222,35.9592448 18.6043963,35.9592448 C19.9625143,35.9592448 21.3206323,35.5888533 22.4318549,34.6011268 L22.4318066,34.6011268 Z M57.9899153,30.8971159 C57.8664676,29.9093893 57.6195239,29.0451587 57.1256847,28.1808798 C56.6317973,27.1931533 55.7675184,26.2054267 54.7797919,25.7115875 C53.6686176,25.0942524 52.3104995,24.9708046 51.0758775,25.0942524 C50.4585424,25.2177001 49.7177112,25.3411961 49.1003761,25.7115875 C48.2361455,26.2054267 47.6188103,27.0697055 47.1249712,28.0574321 C46.6310838,29.2921024 46.3841883,30.6502204 46.3841883,32.0083385 C46.3841883,33.2429605 46.3841883,34.6011268 46.7545315,35.8357971 C47.0014752,36.7000277 47.4953143,37.6877542 48.3596415,38.1815934 C49.2238721,38.9223763 50.3350464,39.16932 51.4462689,39.292816 C52.3104995,39.4162637 53.2982261,39.4162637 54.162505,39.16932 C55.0267356,38.9224245 55.8910144,38.4285371 56.3848536,37.6877542 C57.0021887,36.9469714 57.3725802,35.9592448 57.4960762,35.0949659 C58.1134113,33.6134002 57.9899153,32.2552822 57.9899153,30.8971159 L57.9899153,30.8971159 Z M54.5328964,49.540425 C54.4094004,47.8119155 53.5451698,46.0834061 52.3105478,44.725288 C52.0635558,44.4783443 51.8166604,44.2314006 51.4462207,43.9845052 C49.8412072,42.6263871 48.2361455,41.1447731 46.6310838,39.6632074 C45.026022,38.0580974 43.544408,36.3296362 42.1863383,34.4776308 C41.1986117,32.872569 39.8404454,31.390955 37.9884882,30.5267244 C36.8773139,30.0328853 35.5191959,29.7859416 34.2845256,29.9093893 C32.062177,30.156333 30.0866756,31.390955 28.7285575,33.1195128 C28.3581661,33.4899042 28.1112707,33.9837916 27.8643269,34.4776308 C26.8766004,35.9591965 25.6419783,37.4408105 24.2838121,38.6754808 C23.5430292,39.4162637 22.8022463,40.0335988 22.0614634,40.650934 C21.6910237,41.0213254 21.1971363,41.3917169 20.8267931,41.7621083 C19.3452274,42.8732826 17.8636134,44.3548966 16.9993345,45.9599583 C16.3819994,47.0711326 16.011608,48.3058029 15.8881602,49.6638727 C15.8881602,50.7750953 16.011608,51.8862696 16.3819994,52.8739961 C16.7523908,53.9852187 17.2462783,55.096393 17.9871094,55.9606719 C19.2217314,57.4422376 21.0736886,58.4299642 22.925694,58.5534119 C25.2715386,58.6769079 27.6173832,58.5534119 29.8397801,58.1830205 C30.8275067,58.0595728 31.8152333,57.6891813 32.9264076,57.5656853 C35.1487562,57.3187899 37.3711531,57.4422376 39.4701022,58.0595728 C41.1986117,58.6769079 43.0505689,58.9238516 44.9025743,59.0472993 C46.7545315,59.1707471 48.7300329,58.9238516 50.4585424,57.936125 C51.6931644,57.3187899 52.680891,56.2075673 53.2982261,54.9729453 C54.2859527,53.3678353 54.7797919,51.5158781 54.5328964,49.540425 L54.5328964,49.540425 Z M33.7906864,54.6025539 L28.1112707,54.6025539 C27.4939355,54.6025539 26.8766004,54.6025539 26.2592652,54.4790579 C25.0245949,54.2321142 23.9133724,53.4913313 23.1725895,52.380157 C22.5553026,51.6393741 22.1849112,50.7750953 22.0614152,49.7873687 C21.9379532,48.8035163 21.9379532,47.8080896 22.0614152,46.8242372 C22.3083589,45.7130146 22.925694,44.725288 23.6665252,43.9845052 C24.2838121,43.36717 25.1480909,42.8732826 26.0123215,42.5029394 C26.3827129,42.3793952 26.7531044,42.2559957 27.1235441,42.2559957 L30.4571153,42.2559957 L30.4571153,37.5642582 L33.6671905,37.5642582 C33.7906864,43.36717 33.7906864,49.0465858 33.7906864,54.6025539 L33.7906864,54.6025539 Z M46.507636,54.6025539 L38.7292711,54.6025539 C37.8650405,54.4790579 37.1242576,54.2321142 36.5069225,53.738275 C35.7661396,53.1209399 35.3956999,52.1332133 35.3956999,51.2689827 L35.3956999,42.8732826 L38.6058234,42.8732826 L38.6058234,50.6516475 C38.6058234,51.022039 38.7292711,51.2689827 38.9762148,51.5158781 C39.2231585,51.7628218 39.5935499,51.8862696 39.9639414,51.8862696 L43.2975126,51.8862696 L43.2975126,42.7498349 L46.507636,42.7498349 L46.507636,54.6025539 L46.507636,54.6025539 Z" id="形状" fill="#FFFFFF" fill-rule="nonzero"></path>
            <path d="M27.0000963,45.4660709 C26.3827129,45.7130146 25.7653778,46.2068538 25.3949864,46.9476367 C25.1480909,47.5649718 25.0245949,48.1823069 25.0245949,48.7996421 C25.0245949,49.540425 25.2715386,50.2812078 25.6419301,50.898543 C26.1358175,51.6393259 27.0000481,52.1332133 27.8642787,52.0097655 L30.4571153,52.0097655 L30.4571153,45.3426232 L27.617335,45.3426232 C27.4938873,45.2191272 27.2469435,45.3426232 26.9999998,45.4660709 L27.0000963,45.4660709 Z" id="路径" fill="#FFFFFF" fill-rule="nonzero"></path>
        </g>
    </g>
</svg>