<?xml version="1.0" encoding="UTF-8"?>
<svg width="70px" height="70px" viewBox="0 0 70 70" version="1.1" xmlns="http://www.w3.org/2000/svg" xmlns:xlink="http://www.w3.org/1999/xlink">
    <title>京东</title>
    <g id="页面-1" stroke="none" stroke-width="1" fill="none" fill-rule="evenodd">
        <g id="京东">
            <rect id="矩形" fill="#E31D19" x="0" y="0" width="70" height="70" rx="15"></rect>
            <path d="M20.6862136,29.1489118 C20.7549688,30.0556207 20.8581016,30.9709241 20.8924792,31.8819302 C20.9569372,33.5793237 20.2865742,34.928644 18.9071734,35.9169997 C17.8457653,36.6776039 16.6812245,37.2319425 15.4092537,37.5327464 C13.9224229,37.8808195 12.6848297,36.6604151 13.0715776,35.1821788 C13.2907347,34.3399278 13.5743498,33.4804881 14.0126641,32.7370727 C15.1041526,30.8978717 15.7745156,28.9039715 16.3202598,26.8585049 C16.4190954,26.4760543 16.5566057,26.0979008 16.7284937,25.7412333 C17.0250004,25.1224367 17.6996606,24.804444 18.3485376,24.9978179 C18.8169322,25.1396255 19.2724353,25.3372966 19.7064523,25.5693453 C20.3983013,25.93031 21.0729615,26.3428411 21.7519189,26.7338862 C22.1687472,26.2869775 22.5683867,25.8142857 23.0024037,25.3845658 C24.5236121,23.8762491 26.3971907,22.9179738 28.3094441,22.0327508 C31.3045916,20.6490529 34.385683,19.4759176 37.6257708,18.8012574 C39.1254931,18.4918591 40.6595931,18.2898908 42.1893958,18.1738664 C44.0157052,18.0363561 45.8506091,17.9676009 47.6769185,18.0148701 C50.0489722,18.0707337 52.3866482,18.3844292 54.5524364,19.4759176 C55.7212744,20.0646338 56.7010357,20.8768044 56.9115984,22.208936 C57.0577032,23.1414281 57.0018396,24.1297838 56.8944096,25.0794647 C56.7182245,26.6909142 56.0607531,28.1734477 55.4204705,29.6387925 C55.2485825,30.0255404 54.8016739,30.3349387 54.4192232,30.5626902 C53.4394619,31.1342176 52.3479734,31.4307243 51.2392962,31.6412871 C48.1152328,32.2385977 45.0470329,31.9721714 42.0604798,30.8978717 C40.2857368,30.2618863 38.8547696,29.1016426 37.5527184,27.7738083 C37.4152081,27.6362979 37.3077781,27.4515184 37.1401873,27.3741688 C36.9640022,27.2882248 36.6846843,27.2194696 36.5600655,27.3054136 C36.4311496,27.3956548 36.3538,27.6921615 36.3881776,27.8683466 C36.4354468,28.0789094 36.5944431,28.2894721 36.7491423,28.4570628 C38.6399097,30.5025294 40.9432082,31.8733358 43.6547405,32.5007268 C46.8948283,33.2484394 50.1220245,33.2097646 53.3019515,32.1526537 C53.4824339,32.0924929 53.6629162,32.0237377 53.8391014,31.942091 C54.0109893,31.8647414 54.1785801,31.770203 54.414926,31.7315282 C54.0625557,32.2428949 53.7316714,32.7628559 53.3664095,33.261331 C50.8998175,36.5701739 47.7327821,38.8992556 43.7406845,40.0637964 C41.1924457,40.8072118 38.6442069,40.6997818 36.1088597,40.0852824 C31.876119,39.0539548 27.9871542,37.2749145 24.6353392,34.4387634 C23.5911199,33.5578377 22.6070614,32.6038596 21.9195097,31.4049411 C21.6530833,30.9451409 21.429629,30.4423686 21.3007131,29.9352992 C21.2018775,29.5184709 21.0342867,29.2563418 20.6862136,29.1489118 Z M51.5057225,19.0376034 C51.0158419,19.0848725 50.5173668,19.1020613 50.0317834,19.1794109 C49.2797736,19.2997325 48.5621414,19.5446728 47.9648308,20.0388506 C47.4362754,20.4685705 47.4964361,21.0916643 48.0851524,21.4225486 C48.3214983,21.5514646 48.5879246,21.6503001 48.8457565,21.7190553 C50.0360806,22.0456424 51.2478906,21.9596985 52.4511062,21.8264853 C53.0699028,21.7577301 53.680105,21.560059 54.2602268,21.3366046 C54.6598663,21.1819055 54.9606702,20.8381296 54.9434814,20.348249 C54.9219954,19.8798543 54.543842,19.7122635 54.2000661,19.54897 C53.3535179,19.1536277 52.4382146,19.0419006 51.5057225,19.0376034 Z M37.3765333,24.5294233 C38.0898683,24.5294233 38.6442069,24.026651 38.6442069,23.3949628 C38.6399097,22.7675718 38.0554907,22.2476108 37.3679389,22.251908 C36.6503067,22.2562052 36.1131569,22.750383 36.1088597,23.3949628 C36.1088597,24.026651 36.6631983,24.5251261 37.3765333,24.5294233 Z M42.8984336,51.8553096 C42.5675493,51.8553096 42.2495566,51.8767956 41.9401583,51.8467152 C41.8542143,51.8381208 41.7381899,51.692016 41.7124067,51.5845861 C41.480358,50.6821744 41.2869841,49.7625738 41.0334493,48.8644593 C40.938911,48.512089 40.7584286,48.1726103 40.5521631,47.8675092 C40.2427648,47.3991146 39.7185066,47.3389538 39.3704335,47.7772681 C39.0309548,48.1983935 38.7301509,48.6753826 38.5195881,49.1781548 C38.214487,49.9086786 37.9910327,50.6778772 37.7761728,51.4470757 C37.6859316,51.7650684 37.5742044,51.928362 37.2261313,51.8724984 C37.0284602,51.842418 36.8178974,51.8682012 36.5729571,51.8682012 C36.6245235,50.5532584 36.6674955,49.2812876 36.7190619,47.8889952 C36.4096636,48.0436944 36.1733176,48.121044 35.9928353,48.2585543 C35.576007,48.5937358 35.163476,48.9418089 34.7896197,49.3199624 C34.1063651,50.0161086 33.4445965,50.7380379 32.7828279,51.4599673 C32.3659996,51.9111732 32.2198949,51.9584424 31.5022627,51.7908516 C32.3488108,50.3512901 33.1910618,48.9246201 34.0590959,47.4678698 C33.2254394,47.2272266 32.4992128,46.8963423 32.1898145,46.0411998 C31.9921433,45.5083472 32.0222237,44.9840889 32.2413809,44.4340475 C32.2929472,44.618827 32.331622,44.812201 32.3874856,44.9969805 C32.6668035,45.9552558 33.5090545,46.4537309 34.4587354,46.1658186 C34.7036757,46.088469 34.9743992,45.8865006 35.1119096,45.6673435 C35.9455661,44.3223203 36.7491423,42.9601084 37.5398268,41.5935992 C37.6859316,41.3443617 37.8320363,41.2970925 38.1027599,41.3443617 C39.4091082,41.5506272 40.7154566,41.7440011 42.0303994,41.4002252 C42.3183117,41.3228757 42.5933325,41.2025541 42.8984336,41.0951241 L42.8984336,51.8553096 L42.8984336,51.8553096 Z" id="形状" fill="#FFFFFF" fill-rule="nonzero"></path>
        </g>
    </g>
</svg>