<?xml version="1.0" standalone="no"?><!DOCTYPE svg PUBLIC "-//W3C//DTD SVG 1.1//EN" "http://www.w3.org/Graphics/SVG/1.1/DTD/svg11.dtd"><svg t="1716077653611" class="icon" viewBox="0 0 1024 1024" version="1.1" xmlns="http://www.w3.org/2000/svg" p-id="17363" width="64" height="64" xmlns:xlink="http://www.w3.org/1999/xlink"><path d="M841.142857 219.428571c20.114286 0 36.571429 16.457143 36.571429 36.571429v512c0 20.114286-16.457143 36.571429-36.571429 36.571429H362.057143c-21.942857 0-42.057143-9.142857-54.857143-25.6L95.085714 535.771429c-12.8-14.628571-12.8-34.742857 0-47.542858l213.942857-243.2c14.628571-16.457143 34.742857-25.6 54.857143-25.6H841.142857z m-159.085714 159.085715c-10.971429-10.971429-27.428571-10.971429-38.4 0l-89.6 89.6-89.6-89.6c-9.142857-9.142857-25.6-10.971429-36.571429-1.828572l-1.828571 1.828572c-10.971429 10.971429-10.971429 27.428571 0 38.4l89.6 89.6-89.6 91.428571c-9.142857 9.142857-10.971429 25.6-1.828572 36.571429l1.828572 1.828571c10.971429 10.971429 27.428571 10.971429 38.4 0l89.6-89.6 89.6 89.6c9.142857 9.142857 25.6 10.971429 36.571428 1.828572l1.828572-1.828572c10.971429-10.971429 10.971429-27.428571 0-38.4l-91.428572-91.428571 91.428572-89.6c9.142857-9.142857 10.971429-25.6 1.828571-36.571429l-1.828571-1.828571z" p-id="17364" fill="#bfbfbf"></path></svg>