<?xml version="1.0" encoding="UTF-8"?>
<svg width="70px" height="70px" viewBox="0 0 70 70" version="1.1" xmlns="http://www.w3.org/2000/svg" xmlns:xlink="http://www.w3.org/1999/xlink">
    <title>react</title>
    <g id="页面-1" stroke="none" stroke-width="1" fill="none" fill-rule="evenodd">
        <g id="react">
            <rect id="矩形备份-32" fill="#0A7EA4" x="0" y="0" width="70" height="70" rx="15"></rect>
            <path d="M27.7852857,14.0200582 C26.3668929,13.9243796 24.972,14.1795225 23.75,14.8845225 C22.1201071,15.8245225 21.0340714,17.4309154 20.4516071,19.2823796 C19.8691429,21.1288082 19.7348571,23.2605939 19.9480357,25.5887725 C19.9681786,25.8237725 20.0101429,26.0705225 20.0386786,26.3105582 C19.8171071,26.4045582 19.5821071,26.4918439 19.36725,26.5925582 C17.2455357,27.5711654 15.4679286,28.7528796 14.1569643,30.1813439 C12.8476786,31.6114868 12,33.3538439 12,35.2372011 C12,37.1188796 12.8476786,38.8629154 14.1569643,40.2930582 C15.46625,41.7215225 17.2455357,42.9032368 19.36725,43.8818439 C19.5821071,43.9825582 19.8171071,44.0698439 20.0386786,44.1638439 C20.0101429,44.4038796 19.9681786,44.6506296 19.9463571,44.8856296 C19.7348571,47.2138082 19.8691429,49.3439154 20.4516071,51.1937011 C21.0340714,53.0434868 22.1201071,54.6482011 23.75,55.5898796 C25.3798929,56.5298796 27.3119286,56.6692011 29.2053571,56.2495582 C31.0987857,55.8299154 33.0106786,54.8781654 34.9192143,53.5302725 C35.11225,53.3959868 35.3052857,53.2365225 35.5,53.0921654 C35.6930357,53.2365225 35.8860714,53.3943082 36.0807857,53.5302725 C37.9893214,54.8781654 39.9012143,55.8299154 41.7946429,56.2495582 C43.6880714,56.6692011 45.6201071,56.5315582 47.25,55.5898796 C48.8798929,54.6498796 49.9659286,53.0434868 50.5483929,51.1920225 C51.1308571,49.3455939 51.2651429,47.2138082 51.0519643,44.8856296 C51.0318214,44.6506296 50.9898571,44.4038796 50.9613214,44.1638439 C51.1828929,44.0698439 51.4178929,43.9825582 51.63275,43.8818439 C53.7544643,42.9032368 55.5320714,41.7215225 56.8430357,40.2930582 C58.1523214,38.8629154 59,37.1205582 59,35.2372011 C59,33.3555225 58.1523214,31.6114868 56.8430357,30.1813439 C55.53375,28.7528796 53.7544643,27.5711654 51.63275,26.5925582 C51.4178929,26.4918439 51.1828929,26.4045582 50.9613214,26.3105582 C50.9898571,26.0705225 51.0318214,25.8237725 51.0536429,25.5887725 C51.2651429,23.2605939 51.1308571,21.1304868 50.5483929,19.2807011 C49.9659286,17.4309154 48.8798929,15.8262011 47.25,14.8845225 C45.6201071,13.9445225 43.6880714,13.8052011 41.7946429,14.2248439 C39.9012143,14.6444868 37.9893214,15.5962368 36.0807857,16.9441296 C35.88775,17.0784154 35.6947143,17.2378796 35.5,17.3822368 C35.3069643,17.2378796 35.1139286,17.0800939 34.9192143,16.9441296 C33.0106786,15.5962368 31.0987857,14.6444868 29.2053571,14.2248439 C28.7379239,14.120093 28.2631956,14.0510722 27.7852857,14.0183796 L27.7852857,14.0200582 Z M27.5670714,17.3637725 C27.8524286,17.3839154 28.15625,17.4309154 28.4802143,17.5047725 C29.7492143,17.7850939 31.2683214,18.4968082 32.8713571,19.6113796 C31.4639228,20.9510564 30.1593433,22.394791 28.9686786,23.9303439 C27.0463661,24.1925104 25.1464702,24.5987493 23.2850357,25.1456296 C23.1205357,23.2018439 23.2615357,21.5299868 23.6509643,20.2912011 C24.0521429,19.0222011 24.6497143,18.2433439 25.4285714,17.7918082 C26.0127143,17.4560939 26.7076429,17.2983082 27.5653929,17.3637725 L27.5670714,17.3637725 Z M43.4346071,17.3637725 C44.2906786,17.2983082 44.9872857,17.4560939 45.5714286,17.7918082 C46.3502857,18.2416654 46.9478571,19.0222011 47.3490357,20.2912011 C47.7384643,21.5299868 47.8794643,23.2018439 47.7149643,25.1456296 C45.8535298,24.5987493 43.9536339,24.1925104 42.0313214,23.9303439 C40.8406567,22.394791 39.5360772,20.9510564 38.1286429,19.6113796 C39.7316786,18.4968082 41.2507857,17.7850939 42.5197857,17.5047725 C42.84375,17.4325939 43.1475714,17.3839154 43.4346071,17.3637725 L43.4346071,17.3637725 Z M35.5,21.7398082 C36.0891786,22.2853439 36.6783571,22.8913082 37.2675357,23.5258082 C36.6786326,23.5024634 36.0893608,23.4895923 35.5,23.4872011 C34.9041071,23.4872011 34.3182857,23.5056654 33.7324643,23.5258082 C34.3199643,22.8913082 34.9108214,22.2853439 35.5,21.7398082 L35.5,21.7398082 Z M35.5,26.8443439 C37.1198214,26.8443439 38.6892857,26.9400225 40.1983214,27.0994868 C41.123989,28.3669186 41.9818234,29.6825261 42.7682143,31.0407725 C43.5772857,32.4423796 44.2789286,33.8490225 44.8966429,35.2372011 C44.2618208,36.6726395 43.5513476,38.0734147 42.7682143,39.4336296 C41.9818234,40.791876 41.123989,42.1074836 40.1983214,43.3749154 C38.6876071,43.5343796 37.1198214,43.6300582 35.5,43.6300582 C33.8801786,43.6300582 32.3107143,43.5343796 30.8016786,43.3749154 C29.876011,42.1074836 29.0181766,40.791876 28.2317857,39.4336296 C27.4227143,38.0320225 26.7210714,36.6253796 26.1033571,35.2372011 C26.7193929,33.8490225 27.4227143,32.4423796 28.2317857,31.0407725 C29.0408571,29.6391654 29.9086786,28.3265225 30.8016786,27.0994868 C32.3621776,26.9314854 33.9304849,26.8463183 35.5,26.8443439 L35.5,26.8443439 Z M26.241,27.8514868 C25.9304643,28.3466654 25.6216071,28.8452011 25.3245,29.3622011 C25.0322118,29.8741268 24.749048,30.3912085 24.4751429,30.9132011 C24.2233618,30.113982 24.0021888,29.3054406 23.8121071,28.4893439 C24.5792143,28.2526654 25.3983571,28.0428439 26.241,27.8514868 L26.241,27.8514868 Z M44.759,27.8514868 C45.6016429,28.0428439 46.4207857,28.2526654 47.1878929,28.4893439 C47.0099643,29.2732368 46.78,30.0873439 46.5248571,30.9132011 C46.2509523,30.3912083 45.9677885,29.8741266 45.6755,29.3622011 C45.3789646,28.8532454 45.0734164,28.3495946 44.759,27.8514868 L44.759,27.8514868 Z M20.6513571,29.7029511 C21.0810714,31.4906296 21.6736071,33.3454511 22.4423929,35.2372011 C21.7074014,37.0344118 21.108699,38.8843853 20.6513571,40.7714511 C18.8871786,39.9405582 17.5090714,38.9804154 16.6328571,38.0236296 C15.7348214,37.0433439 15.3571429,36.1369154 15.3571429,35.2372011 C15.3571429,34.3374868 15.7348214,33.4310582 16.6328571,32.4507725 C17.5090714,31.4939868 18.8871786,30.5338439 20.6513571,29.7029511 Z M50.3486429,29.7029511 C52.1128214,30.5338439 53.4909286,31.4939868 54.3671429,32.4507725 C55.2651786,33.4310582 55.6428571,34.3374868 55.6428571,35.2372011 C55.6428571,36.1369154 55.2651786,37.0433439 54.3671429,38.0236296 C53.4909286,38.9804154 52.1128214,39.9405582 50.3486429,40.7714511 C49.891301,38.8843853 49.2925986,37.0344118 48.5576071,35.2372011 C49.3263929,33.3454511 49.9189286,31.4906296 50.3486429,29.7029511 Z M35.5,30.2014868 C32.73875,30.2014868 30.4642857,32.4759511 30.4642857,35.2372011 C30.4642857,37.9984511 32.73875,40.2729154 35.5,40.2729154 C38.26125,40.2729154 40.5357143,37.9984511 40.5357143,35.2372011 C40.5357143,32.4759511 38.26125,30.2014868 35.5,30.2014868 Z M35.5,33.5586296 C36.4467143,33.5586296 37.1785714,34.2904868 37.1785714,35.2372011 C37.1785714,36.1839154 36.4467143,36.9157725 35.5,36.9157725 C34.5532857,36.9157725 33.8214286,36.1839154 33.8214286,35.2372011 C33.8214286,34.2904868 34.5532857,33.5586296 35.5,33.5586296 Z M24.4751429,39.5612011 C24.74875,40.0782011 25.0257143,40.5952011 25.3228214,41.1122011 C25.6216071,41.6292011 25.9304643,42.1277368 26.241,42.6229154 C25.3983571,42.4315582 24.5792143,42.2217368 23.8121071,41.9850582 C23.9900357,41.2011654 24.22,40.3870582 24.4751429,39.5612011 L24.4751429,39.5612011 Z M46.5248571,39.5612011 C46.78,40.3870582 47.0116429,41.2011654 47.1878929,41.9850582 C46.4207857,42.2217368 45.6016429,42.4315582 44.759,42.6229154 C45.0695357,42.1277368 45.3783929,41.6292011 45.6771786,41.1122011 C45.9742857,40.5952011 46.25125,40.0782011 46.5248571,39.5612011 Z M23.2850357,45.3287725 C25.0475357,45.8491296 26.9493571,46.2654154 28.9686786,46.5440582 C30.2225714,48.1554868 31.5368929,49.5957011 32.8713571,50.8630225 C31.2683214,51.9775939 29.7492143,52.6893082 28.4802143,52.9696296 C27.1826786,53.2583439 26.2074286,53.1307725 25.4285714,52.6825939 C24.6497143,52.2327368 24.0521429,51.4522011 23.6509643,50.1832011 C23.2615357,48.9444154 23.1205357,47.2725582 23.2850357,45.3287725 L23.2850357,45.3287725 Z M47.7149643,45.3287725 C47.8794643,47.2725582 47.7384643,48.9444154 47.3490357,50.1832011 C46.9478571,51.4522011 46.3502857,52.2310582 45.5714286,52.6825939 C44.7925714,53.1307725 43.8173214,53.2583439 42.5197857,52.9696296 C41.2507857,52.6893082 39.7316786,51.9775939 38.1286429,50.8630225 C39.5360772,49.5233458 40.8406567,48.0796111 42.0313214,46.5440582 C43.9536339,46.2818917 45.8535298,45.8756529 47.7149643,45.3287725 L47.7149643,45.3287725 Z M33.7324643,46.9485939 C34.3182857,46.9687368 34.9041071,46.9872011 35.5,46.9872011 C36.0958929,46.9872011 36.6817143,46.9687368 37.2675357,46.9485939 C36.6800357,47.5830939 36.0891786,48.1890582 35.5,48.7345939 C34.8882765,48.1620031 34.2986673,47.5662347 33.7324643,46.9485939 Z" id="形状" fill="#FFFFFF" fill-rule="nonzero"></path>
        </g>
    </g>
</svg>