<svg xmlns="http://www.w3.org/2000/svg" xmlns:xlink="http://www.w3.org/1999/xlink" width="27.99365234375" height="30" viewBox="0 0 27.99365234375 30" fill="none">
<path   fill-rule="evenodd"  fill="#3579F4"  d="M25.6368 29.66C25.7989 29.4479 25.8258 29.1822 25.7068 28.95L22.0668 21.81C27.0528 18.7959 29.1812 13.3554 27.3368 8.37C25.4925 3.3843 20.098 0 13.9968 0C7.89563 0 2.50119 3.3843 0.656826 8.37C-1.18753 13.3554 0.940866 18.7959 5.92683 21.81L2.28683 28.95C2.16867 29.1819 2.19499 29.4482 2.35683 29.66C2.51895 29.8718 2.79143 30 3.08683 30L24.9068 30C25.2025 30 25.475 29.8724 25.6368 29.66ZM13.9968 2.9995C9.42051 2.9995 5.36968 5.53976 3.98683 9.2795C2.60398 13.0192 4.2061 17.0994 7.94683 19.3595L10.2768 20.7695L7.09683 26.9995L20.8968 26.9995L17.7168 20.7695L20.0468 19.3595C23.7876 17.0994 25.3897 13.0192 24.0068 9.2795C22.624 5.53976 18.5731 2.9995 13.9968 2.9995ZM20.7848 13.4563C20.0017 16.1244 17.2042 17.9963 13.9948 17.9963C10.7854 17.9963 7.98799 16.1244 7.20483 13.4563L10.5948 12.7263C10.9825 14.064 12.3869 15.0063 13.9948 15.0063C15.6027 15.0063 17.0072 14.064 17.3948 12.7263L20.7848 13.4563Z">
</path>
</svg>
