<svg xmlns="http://www.w3.org/2000/svg" xmlns:xlink="http://www.w3.org/1999/xlink" width="54.999267578125" height="60" viewBox="0 0 54.999267578125 60" fill="none">
<path d="M27.5065 40C55.249 40 54.9741 57.175 54.9741 57.175C55.1841 58.735 54.0591 60 52.459 60L2.55404 60C0.954041 60 -0.233454 58.7174 0.0390415 57.175C0.0390415 57.175 -0.240954 40 27.5065 40ZM27.499 0L44.9991 0L44.9991 17.5C44.9991 17.7864 44.992 18.0727 44.978 18.3587C44.9639 18.6448 44.9428 18.9303 44.9147 19.2153C44.8867 19.5004 44.8516 19.7845 44.8096 20.0678C44.7676 20.3511 44.7186 20.6332 44.6628 20.9141C44.6069 21.195 44.5441 21.4744 44.4746 21.7522C44.405 22.03 44.3286 22.3059 44.2455 22.58C44.1623 22.854 44.0726 23.1259 43.9761 23.3955C43.8796 23.6653 43.7766 23.9324 43.6669 24.1969C43.5573 24.4615 43.4413 24.7233 43.3188 24.9822C43.1964 25.2411 43.0677 25.4968 42.9326 25.7494C42.7976 26.002 42.6565 26.2511 42.5093 26.4968C42.362 26.7425 42.2089 26.9844 42.0497 27.2225C41.8907 27.4606 41.7258 27.6947 41.5552 27.9247C41.3846 28.1548 41.2084 28.3805 41.0267 28.6019C40.845 28.8233 40.658 29.0401 40.4657 29.2523C40.2734 29.4645 40.076 29.6718 39.8734 29.8744C39.6709 30.0769 39.4635 30.2743 39.2513 30.4666C39.0391 30.659 38.8223 30.846 38.6009 31.0277C38.3795 31.2094 38.1538 31.3855 37.9237 31.5561C37.6937 31.7267 37.4596 31.8916 37.2215 32.0507C36.9834 32.2098 36.7415 32.363 36.4958 32.5103C36.2501 32.6575 36.001 32.7986 35.7485 32.9336C35.4959 33.0686 35.2402 33.1973 34.9812 33.3198C34.7223 33.4423 34.4606 33.5583 34.196 33.6679C33.9314 33.7775 33.6643 33.8805 33.3946 33.9771C33.1249 34.0735 32.853 34.1633 32.579 34.2465C32.305 34.3296 32.029 34.406 31.7512 34.4756C31.4734 34.5451 31.194 34.6079 30.9131 34.6637C30.6322 34.7196 30.3501 34.7686 30.0668 34.8106C29.7835 34.8526 29.4994 34.8877 29.2143 34.9157C28.9293 34.9438 28.6438 34.9649 28.3577 34.9789C28.0717 34.993 27.7854 35 27.499 35C27.2126 35 26.9264 34.993 26.6404 34.9789C26.3543 34.9649 26.0688 34.9438 25.7837 34.9157C25.4987 34.8877 25.2145 34.8526 24.9312 34.8106C24.6479 34.7686 24.3659 34.7196 24.085 34.6637C23.8041 34.6079 23.5247 34.5451 23.2469 34.4756C22.9691 34.406 22.6931 34.3296 22.4191 34.2465C22.145 34.1633 21.8731 34.0735 21.6035 33.977C21.3338 33.8805 21.0667 33.7775 20.8021 33.6679C20.5375 33.5583 20.2757 33.4423 20.0168 33.3198C19.7579 33.1973 19.5022 33.0686 19.2496 32.9336C18.997 32.7986 18.7479 32.6575 18.5023 32.5103C18.2566 32.363 18.0147 32.2098 17.7766 32.0507C17.5384 31.8916 17.3043 31.7267 17.0743 31.5561C16.8442 31.3855 16.6185 31.2094 16.3972 31.0277C16.1757 30.846 15.9589 30.659 15.7468 30.4666C15.5345 30.2743 15.3272 30.0769 15.1247 29.8744C14.9221 29.6718 14.7247 29.4645 14.5324 29.2523C14.3401 29.0401 14.1531 28.8233 13.9714 28.6019C13.7897 28.3805 13.6135 28.1548 13.4429 27.9247C13.2723 27.6947 13.1074 27.4606 12.9483 27.2225C12.7892 26.9844 12.636 26.7425 12.4888 26.4968C12.3415 26.2511 12.2004 26.002 12.0654 25.7494C11.9304 25.4968 11.8017 25.2411 11.6792 24.9822C11.5568 24.7233 11.4408 24.4615 11.3312 24.1969C11.2215 23.9324 11.1185 23.6653 11.022 23.3955C10.9255 23.1259 10.8357 22.854 10.7526 22.58C10.6695 22.3059 10.593 22.03 10.5235 21.7522C10.4539 21.4744 10.3911 21.195 10.3353 20.9141C10.2795 20.6332 10.2305 20.3511 10.1885 20.0678C10.1464 19.7845 10.1113 19.5004 10.0833 19.2153C10.0552 18.9303 10.0342 18.6448 10.0201 18.3587C10.0061 18.0727 9.99902 17.7864 9.99902 17.5C9.99902 17.2136 10.0061 16.9274 10.0201 16.6413C10.0342 16.3553 10.0552 16.0697 10.0833 15.7847C10.1113 15.4997 10.1464 15.2155 10.1885 14.9322C10.2305 14.6489 10.2795 14.3668 10.3353 14.0859C10.3911 13.805 10.4539 13.5257 10.5235 13.2479C10.593 12.97 10.6695 12.694 10.7526 12.42C10.8357 12.146 10.9255 11.8741 11.022 11.6044C11.1185 11.3348 11.2215 11.0677 11.3312 10.803C11.4408 10.5384 11.5568 10.2767 11.6792 10.0178C11.8017 9.75885 11.9304 9.50314 12.0654 9.25055C12.2004 8.99795 12.3415 8.74887 12.4888 8.50318C12.636 8.25756 12.7892 8.01568 12.9483 7.7775C13.1074 7.53937 13.2723 7.30529 13.4429 7.07525C13.6135 6.84521 13.7897 6.61951 13.9714 6.39814C14.1531 6.17672 14.3401 5.95992 14.5324 5.74772C14.7247 5.53551 14.9221 5.32815 15.1247 5.12563C15.3272 4.92311 15.5345 4.72569 15.7468 4.53336C15.9589 4.34102 16.1757 4.15401 16.3972 3.97232C16.6185 3.79062 16.8442 3.61447 17.0743 3.44387C17.3043 3.27326 17.5384 3.1084 17.7766 2.94928C18.0147 2.79016 18.2566 2.63699 18.5023 2.48975C18.7479 2.34251 18.997 2.20138 19.2496 2.06638C19.5022 1.93137 19.7579 1.80264 20.0168 1.68019C20.2757 1.55773 20.5375 1.44171 20.8021 1.33211C21.0667 1.22251 21.3338 1.11946 21.6035 1.02298C21.8731 0.92649 22.145 0.836684 22.4191 0.753545C22.6931 0.670406 22.9691 0.594047 23.2469 0.524453C23.5247 0.454863 23.8041 0.392132 24.085 0.336258C24.3659 0.280383 24.6479 0.231435 24.9312 0.189411C25.2145 0.147387 25.4987 0.112339 25.7838 0.0842672C26.0688 0.0561951 26.3543 0.0351325 26.6404 0.0210795C26.9264 0.0070265 27.2126 0 27.499 0Z"   fill="#3979F0" >
</path>
</svg>
