<svg xmlns="http://www.w3.org/2000/svg" xmlns:xlink="http://www.w3.org/1999/xlink" width="16" height="16" viewBox="0 0 16 16" fill="none"><defs><rect id="path_0" x="0" y="0" width="16" height="16" /></defs><g opacity="1" transform="translate(0 0)  rotate(0 8 8)"><mask id="bg-mask-0" fill="white"><use xlink:href="#path_0"></use></mask><g mask="url(#bg-mask-0)" ><path id="分组 1" fill-rule="evenodd" style="fill:#FFFFFF" transform="translate(3.505000000000001 0.0030000000000001137)  rotate(0 4.5 6.2485)" opacity="1" d="M0 7.997C0 10.477 2.02 12.497 4.5 12.497C6.98 12.497 9 10.477 9 7.997C9 5.517 6.98 3.497 4.5 3.497C2.02 3.497 0 5.517 0 7.997Z M5.001 2L5.001 0.5C5.001 0.22 4.781 0 4.501 0C4.221 0 4.001 0.22 4.001 0.5L4.001 2C4.001 2.28 4.221 2.5 4.501 2.5C4.781 2.5 5.001 2.28 5.001 2Z " /><g opacity="1" transform="translate(0.0030000000000001137 0.0030000000000001137)  rotate(0 7.997 7.997)"><path id="路径 3" fill-rule="evenodd" style="fill:#FFFFFF" transform="translate(7.503 0)  rotate(0 0.5 1.25)" opacity="1" d="M1,2L1,0.5C1,0.22 0.78,0 0.5,0C0.22,0 0,0.22 0,0.5L0,2C0,2.28 0.22,2.5 0.5,2.5C0.78,2.5 1,2.28 1,2Z " /><path id="路径 4" fill-rule="evenodd" style="fill:#FFFFFF" transform="translate(2.2066439896255163 2.1976439896255164)  rotate(0 1.028632676853651 1.0271780051872417)" opacity="1" d="M1.56,2.05C1.76,2.05 1.94,1.93 2.02,1.74C2.1,1.56 2.05,1.34 1.91,1.2L0.85,0.14C0.65,-0.05 0.34,-0.05 0.15,0.15C-0.05,0.34 -0.05,0.65 0.14,0.85L1.2,1.91C1.3,2 1.42,2.05 1.56,2.05L1.56,2.05Z " /><path id="路径 5" fill-rule="evenodd" style="fill:#FFFFFF" transform="translate(0 7.49)  rotate(0 1.25 0.5)" opacity="1" d="M2.5,0.5C2.5,0.22 2.28,0 2,0L0.5,0C0.22,0 0,0.22 0,0.5C0,0.78 0.22,1 0.5,1L2,1C2.28,1 2.5,0.78 2.5,0.5Z " /><path id="路径 6" fill-rule="evenodd" style="fill:#FFFFFF" transform="translate(2.1900906566671816 11.738643989625501)  rotate(0 1.0281326768536578 1.027178408180891)" opacity="1" d="M0.85,1.91L1.92,0.85C2.11,0.65 2.1,0.34 1.91,0.15C1.72,-0.05 1.41,-0.05 1.21,0.14L0.15,1.2C0,1.34 -0.04,1.56 0.04,1.75C0.12,1.93 0.3,2.05 0.5,2.05C0.63,2.05 0.76,2 0.85,1.91Z " /><path id="路径 7" fill-rule="evenodd" style="fill:#FFFFFF" transform="translate(7.49 13.494)  rotate(0 0.5 1.25)" opacity="1" d="M1,2L1,0.5C1,0.22 0.78,0 0.5,0C0.22,0 0,0.22 0,0.5L0,2C0,2.28 0.22,2.5 0.5,2.5C0.78,2.5 1,2.28 1,2Z " /><path id="路径 8" fill-rule="evenodd" style="fill:#FFFFFF" transform="translate(11.717334274825937 11.727855020812044)  rotate(0 1.0372871377028448 1.0375724895939786)" opacity="1" d="M2.04,1.77C2.11,1.58 2.07,1.36 1.93,1.22L0.87,0.16C0.74,0.03 0.55,-0.03 0.38,0.02C0.2,0.06 0.06,0.2 0.02,0.38C-0.03,0.56 0.03,0.74 0.16,0.87L1.22,1.93C1.32,2.02 1.44,2.08 1.57,2.08C1.78,2.08 1.96,1.95 2.04,1.77Z " /><path id="路径 9" fill-rule="evenodd" style="fill:#FFFFFF" transform="translate(13.494 7.504000000000001)  rotate(0 1.25 0.5)" opacity="1" d="M2.5,0.5C2.5,0.22 2.28,0 2,0L0.5,0C0.22,0 0,0.22 0,0.5C0,0.78 0.22,1 0.5,1L2,1C2.28,1 2.5,0.78 2.5,0.5Z " /><path id="路径 10" fill-rule="evenodd" style="fill:#FFFFFF" transform="translate(11.741090656667183 2.201221830321111)  rotate(0 1.030593756508499 1.030389487833086)" opacity="1" d="M0.85,1.91L1.91,0.85C2.11,0.66 2.11,0.34 1.91,0.15C1.72,-0.05 1.4,-0.05 1.21,0.15L0.15,1.21C0,1.35 -0.04,1.57 0.04,1.75C0.12,1.94 0.3,2.06 0.5,2.06C0.63,2.06 0.76,2.01 0.85,1.91Z " /></g></g></g></svg>