<?xml version="1.0" standalone="no"?><!DOCTYPE svg PUBLIC "-//W3C//DTD SVG 1.1//EN" "http://www.w3.org/Graphics/SVG/1.1/DTD/svg11.dtd"><svg t="1717426634188" class="icon" viewBox="0 0 1024 1024" version="1.1" xmlns="http://www.w3.org/2000/svg" p-id="10604" width="64" height="64" xmlns:xlink="http://www.w3.org/1999/xlink"><path d="M0 512.54042a511.45958 511.45958 0 1 0 1022.918161 0A511.45958 511.45958 0 1 0 0 512.54042z" fill="#FFFFFF" p-id="10605"></path><path d="M587.666518 672.116289s-76.207937 60.86395-102.291916 76.718937a343.189718 343.189718 0 0 1-67.512945 29.663975 282.836768 282.836768 0 0 1-51.145958 12.27599l-37.847969 3.067998h-18.923984a285.393766 285.393766 0 0 1-74.160939-9.205993 188.216846 188.216846 0 0 1-60.86395-27.618977 134.51389 134.51389 0 0 1-40.916967-46.030962 132.467891 132.467891 0 0 1-14.831988-64.443947 109.45191 109.45191 0 0 1 17.389986-57.282953 153.437874 153.437874 0 0 1 42.961965-43.985964 204.583832 204.583832 0 0 1 58.306952-27.106978 196.911838 196.911838 0 0 1 63.419948-5.625995 386.662683 386.662683 0 0 1 60.86395 7.671993 553.909546 553.909546 0 0 1 56.259954 14.831988q27.107978 8.694993 51.146958 18.923985l45.519963 19.434984 17.899985 7.159994 19.435984 7.160994a414.79366 414.79366 0 0 0 35.289971-51.145958q14.321988-25.572979 23.527981-46.542962t14.319988-35.289971q5.114996-14.320988 6.649994-19.946984H320.684737v-37.336969h146.78888v-79.786935H262.889784v-34.779971h204.583833v-64.443947a11.76399 11.76399 0 0 1 7.159994-12.78599 51.145958 51.145958 0 0 1 16.366986-5.625995 124.284898 124.284898 0 0 1 24.54998 0h55.237955v82.855932h210.209827v34.267972h-210.209827v80.299934h167.246863a409.167664 409.167664 0 0 1-16.877987 67.511945 519.642574 519.642574 0 0 1-29.664975 70.069942 494.069595 494.069595 0 0 1-51.145958 81.321933A1417.763837 1417.763837 0 0 0 978.932197 722.750247a511.45958 511.45958 0 1 0-44.496964 78.764936 1882.680456 1882.680456 0 0 1-345.745716-129.399894zM185.659848 649.100308c0 87.970928 97.17692 94.108923 112.519907 94.619922a224.529816 224.529816 0 0 0 123.262899-36.31297 707.34742 707.34742 0 0 0 85.41293-69.558943l5.625996-5.625996-40.915967-20.969982a460.312622 460.312622 0 0 0-141.674884-51.145958c-114.566906-11.76299-143.719882 60.35295-144.742881 86.947928z" fill="#338EF4" p-id="10606"></path></svg>