<?xml version="1.0" standalone="no"?><!DOCTYPE svg PUBLIC "-//W3C//DTD SVG 1.1//EN" "http://www.w3.org/Graphics/SVG/1.1/DTD/svg11.dtd"><svg t="1717370159400" class="icon" viewBox="0 0 1024 1024" version="1.1" xmlns="http://www.w3.org/2000/svg" p-id="10475" width="64" height="64" xmlns:xlink="http://www.w3.org/1999/xlink"><path d="M375.38 402.09H156.1c-15.14 0-27.41-12.27-27.41-27.41V155.4c0-15.14 12.27-27.41 27.41-27.41h219.28c15.14 0 27.41 12.27 27.41 27.41v219.28c0 15.14-12.27 27.41-27.41 27.41zM850.95 402.09H667.3c-24.93 0-45.22-20.29-45.22-45.22V173.21c0-24.93 20.29-45.22 45.22-45.22h183.65c24.93 0 45.22 20.29 45.22 45.22v183.65c0 24.94-20.29 45.23-45.22 45.23zM667.3 169.11c-2.26 0-4.11 1.85-4.11 4.11v183.65c0 2.26 1.85 4.11 4.11 4.11h183.65c2.26 0 4.11-1.85 4.11-4.11V173.21c0-2.26-1.85-4.11-4.11-4.11H667.3zM850.95 895.48H667.3c-24.93 0-45.22-20.29-45.22-45.22V666.6c0-24.93 20.29-45.22 45.22-45.22h183.65c24.93 0 45.22 20.29 45.22 45.22v183.65c0 24.94-20.29 45.23-45.22 45.23zM667.3 662.49c-2.26 0-4.11 1.85-4.11 4.11v183.65c0 2.26 1.85 4.11 4.11 4.11h183.65c2.26 0 4.11-1.85 4.11-4.11V666.6c0-2.26-1.85-4.11-4.11-4.11H667.3zM357.57 895.48H173.91c-24.93 0-45.22-20.29-45.22-45.22V666.6c0-24.93 20.29-45.22 45.22-45.22h183.65c24.93 0 45.22 20.29 45.22 45.22v183.65c0.01 24.94-20.28 45.23-45.21 45.23zM173.91 662.49c-2.26 0-4.11 1.85-4.11 4.11v183.65c0 2.26 1.85 4.11 4.11 4.11h183.65c2.26 0 4.11-1.85 4.11-4.11V666.6c0-2.26-1.85-4.11-4.11-4.11H173.91zM580.96 758.42h-41.12c-7.58 0-13.71-6.13-13.71-13.71 0-7.58 6.13-13.71 13.71-13.71h41.12c7.58 0 13.71 6.13 13.71 13.71-0.01 7.58-6.14 13.71-13.71 13.71zM485.02 758.42H443.9c-7.58 0-13.71-6.13-13.71-13.71 0-7.58 6.13-13.71 13.71-13.71h41.12c7.58 0 13.71 6.13 13.71 13.71 0 7.58-6.13 13.71-13.71 13.71zM265.74 593.96c-7.58 0-13.71-6.13-13.71-13.71v-41.12c0-7.58 6.13-13.71 13.71-13.71s13.71 6.13 13.71 13.71v41.12c-0.01 7.58-6.13 13.71-13.71 13.71zM265.74 498.03c-7.58 0-13.71-6.13-13.71-13.71V443.2c0-7.58 6.13-13.71 13.71-13.71s13.71 6.13 13.71 13.71v41.12c-0.01 7.58-6.13 13.71-13.71 13.71z" fill="#2196F3" p-id="10476"></path><path d="M265.74 389.91c-7.58 0-13.71-6.13-13.71-13.71v-48.73c0-7.58 6.13-13.71 13.71-13.71s13.71 6.13 13.71 13.71v48.73c-0.01 7.58-6.13 13.71-13.71 13.71zM580.96 265.04h-41.12c-7.58 0-13.71-6.13-13.71-13.71s6.13-13.71 13.71-13.71h41.12c7.58 0 13.71 6.13 13.71 13.71s-6.14 13.71-13.71 13.71zM485.02 265.04H443.9c-7.58 0-13.71-6.13-13.71-13.71s6.13-13.71 13.71-13.71h41.12c7.58 0 13.71 6.13 13.71 13.71s-6.13 13.71-13.71 13.71zM759.12 593.96c-7.58 0-13.71-6.13-13.71-13.71v-41.12c0-7.58 6.13-13.71 13.71-13.71s13.71 6.13 13.71 13.71v41.12c0 7.58-6.13 13.71-13.71 13.71zM759.12 498.03c-7.58 0-13.71-6.13-13.71-13.71V443.2c0-7.58 6.13-13.71 13.71-13.71s13.71 6.13 13.71 13.71v41.12c0 7.58-6.13 13.71-13.71 13.71z" fill="#2196F3" p-id="10477"></path><path d="M841.35 374.68H718.01c-15.14 0-27.41-12.27-27.41-27.41V223.93c0-15.14 12.27-27.41 27.41-27.41h123.35c15.14 0 27.41 12.27 27.41 27.41v123.35c-0.01 15.13-12.28 27.4-27.42 27.4zM841.35 868.06H718.01c-15.14 0-27.41-12.27-27.41-27.41V717.31c0-15.14 12.27-27.41 27.41-27.41h123.35c15.14 0 27.41 12.27 27.41 27.41v123.35c-0.01 15.13-12.28 27.4-27.42 27.4zM347.97 868.06H224.62c-15.14 0-27.41-12.27-27.41-27.41V717.31c0-15.14 12.27-27.41 27.41-27.41h123.35c15.14 0 27.41 12.27 27.41 27.41v123.35c0 15.13-12.27 27.4-27.41 27.4z" fill="#2196F3" opacity=".2" p-id="10478"></path></svg>