<?xml version="1.0" standalone="no"?><!DOCTYPE svg PUBLIC "-//W3C//DTD SVG 1.1//EN" "http://www.w3.org/Graphics/SVG/1.1/DTD/svg11.dtd"><svg t="1716043548696" class="icon" viewBox="0 0 1024 1024" version="1.1" xmlns="http://www.w3.org/2000/svg" p-id="2799" width="64" height="64" xmlns:xlink="http://www.w3.org/1999/xlink"><path d="M665.024 547.52H390.72L251.968 360.192c-3.712-4.928-5.696-10.944-5.696-17.152v-60.416c0-15.872 12.928-28.8 28.8-28.8h505.6c15.872 0 28.8 12.928 28.8 28.8v60.352c0 6.144-1.984 12.16-5.696 17.152l-138.752 187.392zM390.72 595.648v400.512c0 15.424 12.48 27.84 27.84 27.84h218.624c15.424 0 27.84-12.48 27.84-27.84V595.648H390.72z m137.152 178.048c-14.656 0-26.496-11.84-26.496-26.496v-81.792c0-14.656 11.84-26.496 26.496-26.496 14.656 0 26.496 11.84 26.496 26.496v81.792c0 14.656-11.84 26.496-26.496 26.496z" fill="#ffffff" p-id="2800"></path></svg>