<?xml version="1.0" standalone="no"?><!DOCTYPE svg PUBLIC "-//W3C//DTD SVG 1.1//EN" "http://www.w3.org/Graphics/SVG/1.1/DTD/svg11.dtd"><svg t="1717345959067" class="icon" viewBox="0 0 1024 1024" version="1.1" xmlns="http://www.w3.org/2000/svg" p-id="67267" width="64" height="64" xmlns:xlink="http://www.w3.org/1999/xlink"><path d="M921.088 147.968c0-46.592-37.376-83.968-83.968-83.968h-650.24c-46.592 0-83.968 37.376-83.968 83.968v728.064c0 46.592 37.376 83.968 83.968 83.968h649.728c46.592 0 83.968-37.376 83.968-83.968V497.664l0.512-349.696zM865.28 876.544c0 15.36-12.8 28.16-28.16 28.16h-650.24c-15.36 0-28.16-12.8-28.16-28.16V147.456c0-15.36 12.8-28.16 28.16-28.16h649.728c15.36 0 28.16 12.8 28.16 28.16v729.088z" p-id="67268" fill="#ffffff"></path><path d="M250.368 629.76c-20.992 0-38.4-16.384-38.4-36.864s17.408-36.864 38.4-36.864c21.504 0 38.912 16.384 38.912 36.864 0 18.944-14.336 34.304-33.28 36.352l-5.632 0.512zM380.416 619.52c-16.896 0-30.208-12.8-30.208-28.16 0-14.336 11.264-26.112 26.112-28.16l4.096-0.512h407.552c16.896 0 30.72 12.8 30.72 28.16 0 14.336-11.264 26.112-26.112 28.16H380.416zM250.368 464.384c-20.992 0-38.4-16.384-38.4-36.864 0-19.968 16.384-36.352 36.864-36.864h1.536c21.504 0 38.912 16.384 38.912 36.864 0 18.944-14.336 34.304-33.28 36.352l-5.632 0.512zM373.248 455.168c-16.896 0-30.208-12.8-30.208-28.16 0-14.336 11.264-26.112 26.112-28.16H780.8c16.896 0 30.72 12.8 30.72 28.16 0 14.336-11.264 26.112-26.112 28.16H373.248z" p-id="67269" fill="#ffffff"></path><path d="M250.368 298.496c-20.992 0-38.4-16.384-38.4-36.864s17.408-36.864 38.4-36.864c21.504 0 38.912 16.384 38.912 36.864 0 18.432-14.336 34.304-33.28 36.352l-5.632 0.512zM372.736 290.304c-16.384 0-29.696-12.8-29.696-28.16 0-14.336 11.264-26.112 25.6-28.16l4.096-0.512h189.44c16.384 0 29.696 12.8 29.696 28.16 0 14.336-11.264 26.112-25.6 28.16l-4.096 0.512h-189.44z" p-id="67270" fill="#ffffff"></path><path d="M460.8 798.72H368.64c-14.336 0-25.6-11.264-25.6-25.6v-25.6c0-14.336 11.264-25.6 25.6-25.6h92.16c14.336 0 25.6 11.264 25.6 25.6v25.6c0 14.336-11.264 25.6-25.6 25.6zM655.36 798.72h-92.16c-14.336 0-25.6-11.264-25.6-25.6v-25.6c0-14.336 11.264-25.6 25.6-25.6h92.16c14.336 0 25.6 11.264 25.6 25.6v25.6c0 14.336-11.264 25.6-25.6 25.6z" p-id="67271" fill="#ffffff"></path></svg>