<?xml version="1.0" standalone="no"?><!DOCTYPE svg PUBLIC "-//W3C//DTD SVG 1.1//EN" "http://www.w3.org/Graphics/SVG/1.1/DTD/svg11.dtd"><svg t="1715595056405" class="icon" viewBox="0 0 1024 1024" version="1.1" xmlns="http://www.w3.org/2000/svg" p-id="8450" width="64" height="64" xmlns:xlink="http://www.w3.org/1999/xlink"><path d="M68.500117 182.022637l98.906637 0 0 98.906637-98.906637 0 0-98.906637Z" fill="#ffffff" p-id="8451"></path><path d="M266.314415 182.022637l692.348508 0 0 98.906637-692.348508 0 0-98.906637Z" fill="#ffffff" p-id="8452"></path><path d="M68.500117 429.290253l98.906637 0 0 98.906637-98.906637 0 0-98.906637Z" fill="#ffffff" p-id="8453"></path><path d="M266.314415 429.290253l692.348508 0 0 98.906637-692.348508 0 0-98.906637Z" fill="#ffffff" p-id="8454"></path><path d="M68.500117 726.011188l98.906637 0 0 98.906637-98.906637 0 0-98.906637Z" fill="#ffffff" p-id="8455"></path><path d="M266.314415 726.011188l494.53421 0 0 98.906637-494.53421 0 0-98.906637Z" fill="#ffffff" p-id="8456"></path></svg>