<?xml version="1.0" standalone="no"?><!DOCTYPE svg PUBLIC "-//W3C//DTD SVG 1.1//EN" "http://www.w3.org/Graphics/SVG/1.1/DTD/svg11.dtd"><svg t="1717344511588" class="icon" viewBox="0 0 1024 1024" version="1.1" xmlns="http://www.w3.org/2000/svg" p-id="11370" width="64" height="64" xmlns:xlink="http://www.w3.org/1999/xlink"><path d="M51.2 512c2.048-152.7808 28.5696-279.2448 106.1888-354.6112C232.7552 79.7696 359.2192 53.248 512 51.2c152.7808 2.048 279.2448 28.5696 354.6112 106.1888C944.2304 232.7552 970.752 359.2192 972.8 512c-2.048 152.7808-28.5696 279.2448-106.1888 354.6112C791.2448 944.2304 664.7808 970.752 512 972.8c-152.7808-2.048-279.2448-28.5696-354.6112-106.1888C79.7696 791.2448 53.248 664.7808 51.2 512z" fill="#409EFF" p-id="11371"></path><path d="M655.5648 553.8816h-59.0848c37.7856-27.136 60.1088-70.8608 60.1088-117.3504 0-79.7696-64.9216-144.5888-144.5888-144.5888s-144.5888 64.9216-144.5888 144.5888c0 46.4896 22.4256 90.2144 60.1088 117.3504h-59.0848c-39.936 0-72.3968 32.4608-72.3968 72.3968v33.4848c0 39.936 32.4608 72.3968 72.3968 72.3968h287.1296c39.936 0 72.3968-32.4608 72.3968-72.3968v-33.4848c-0.1024-40.0384-32.4608-72.3968-72.3968-72.3968z m-145.408-193.7408c-42.0864 0.1024-76.288 34.2016-76.288 76.288 0 7.4752-6.0416 13.5168-13.5168 13.5168-7.4752 0-13.5168-6.0416-13.5168-13.5168 0.1024-57.0368 46.2848-103.2192 103.3216-103.3216 7.4752 0 13.5168 6.0416 13.5168 13.5168 0 7.4752-6.0416 13.5168-13.5168 13.5168z" fill="#FFFFFF" p-id="11372"></path></svg>