<?xml version="1.0" standalone="no"?><!DOCTYPE svg PUBLIC "-//W3C//DTD SVG 1.1//EN" "http://www.w3.org/Graphics/SVG/1.1/DTD/svg11.dtd"><svg t="1717344950077" class="icon" viewBox="0 0 1344 1024" version="1.1" xmlns="http://www.w3.org/2000/svg" p-id="31997" width="84" height="64" xmlns:xlink="http://www.w3.org/1999/xlink"><path d="M1039.462898 897.235725h50.705507v126.763768h-50.705507z" fill="#E3EEFF" p-id="31998"></path><path d="M1140.873912 377.504276a38.02913 38.02913 0 0 1-38.02913 38.02913H912.69913a76.058261 76.058261 0 0 0 0 152.116522h114.087391a63.381884 63.381884 0 1 1 0 126.763768H912.69913a101.411014 101.411014 0 1 0 0 202.822029h101.411014v126.763768H139.440145a63.381884 63.381884 0 1 1 0-126.763768H354.938551a101.411014 101.411014 0 0 0 0-202.822029H63.381884a63.381884 63.381884 0 1 1 0-126.763768H507.055072a76.058261 76.058261 0 0 0 0-152.116522h-114.087391a38.02913 38.02913 0 0 1 0-76.05826h709.877101a38.02913 38.02913 0 0 1 38.02913 38.02913zM1140.873912 897.235725h25.352754v126.763768h-25.352754zM1343.695941 960.617609a63.128356 63.128356 0 0 1-63.381884 63.381884H1191.57942v-126.763768h88.734637a63.381884 63.381884 0 0 1 63.381884 63.381884z" fill="#E3EEFF" p-id="31999"></path><path d="M199.272643 396.265314a4.817023 4.817023 0 0 1-5.07055 4.817023H149.327719l31.944469 31.944469a5.070551 5.070551 0 0 1 0 6.845244 5.070551 5.070551 0 0 1-3.802913 1.521165 4.817023 4.817023 0 0 1-3.295858-1.521165l-31.690942-31.94447v45.127902a5.070551 5.070551 0 1 1-9.887574 0v-45.127902L101.411014 439.87205a5.324078 5.324078 0 0 1-7.098771 0 5.070551 5.070551 0 0 1 0-6.845244L126.763768 401.082337H80.621756a4.563496 4.563496 0 0 1-4.563495-4.817023 4.817023 4.817023 0 0 1 4.817023-5.070551H126.763768l-32.95858-31.690942a5.070551 5.070551 0 0 1 0-6.845244 4.817023 4.817023 0 0 1 7.098771 0l31.690942 31.690942v-44.874373a4.817023 4.817023 0 0 1 5.070551-5.070551 4.817023 4.817023 0 0 1 4.817023 5.070551v44.874373l31.690942-31.690942a4.817023 4.817023 0 0 1 7.098771 0 5.070551 5.070551 0 0 1 0 3.549386 5.324078 5.324078 0 0 1 0 3.295858l-31.944469 31.690942h44.874374a4.817023 4.817023 0 0 1 5.07055 5.070551z" fill="#76A6EF" p-id="32000"></path><path d="M1120.084654 172.907554A4.817023 4.817023 0 0 1 1115.521159 177.724577h-45.381429l31.944469 31.690942a5.324078 5.324078 0 0 1 0 7.098772 5.577606 5.577606 0 0 1-7.098771 0l-31.690942-31.94447v45.127901a4.563496 4.563496 0 0 1-4.817023 4.817024 4.817023 4.817023 0 0 1-5.070551-4.817024V184.569821L1021.71597 216.514291a5.070551 5.070551 0 0 1-6.845243 0 4.817023 4.817023 0 0 1 0-7.098772L1046.561669 177.724577h-44.874374a4.817023 4.817023 0 0 1-5.070551-4.817023 4.817023 4.817023 0 0 1 5.070551-5.07055h44.874374L1014.110144 136.146062a4.817023 4.817023 0 1 1 6.845244-6.845244l31.690942 31.690942V116.117386a4.817023 4.817023 0 0 1 5.070551-5.070551 4.817023 4.817023 0 0 1 4.817023 5.070551v44.874374l31.690942-31.690942a4.817023 4.817023 0 0 1 7.098771 0 4.056441 4.056441 0 0 1 1.267637 3.549386 4.563496 4.563496 0 0 1-1.267637 3.295858l-31.183887 31.690942H1115.521159a4.817023 4.817023 0 0 1 4.563495 5.07055z" fill="#2B77EF" p-id="32001"></path><path d="M326.543466 121.187937a60.593081 60.593081 0 1 1 60.593082-60.339554 60.593081 60.593081 0 0 1-60.593082 60.339554z m0-95.579881a35.240328 35.240328 0 1 0 35.240328 35.240327A35.240328 35.240328 0 0 0 326.543466 25.608056z" fill="#C7DDFF" p-id="32002"></path><path d="M557.760579 892.672229v7.352299a71.241238 71.241238 0 0 1 0-7.352299z" fill="#CC6666" p-id="32003"></path><path d="M882.782881 251.247563a56.283113 56.283113 0 0 1 32.451524 50.705507v296.37369a132.594901 132.594901 0 0 1-7.859353 44.113791c-38.02913 111.045061-207.385525 201.047336-270.767409 231.724168a56.536641 56.536641 0 0 1-48.677287 0c-63.635412-30.676832-232.738278-120.679107-270.767408-231.724168a123.46791 123.46791 0 0 1-7.605826-40.310878v-11.155212a55.269003 55.269003 0 0 0 0 6.338189V302.206598a56.283113 56.283113 0 0 1 32.451524-50.705508l14.704597-7.098771 231.977696-109.01684a56.029585 56.029585 0 0 1 47.663177 0l231.977695 109.01684z" fill="#C7DDFF" p-id="32004"></path><path d="M882.782881 249.726398l-14.704597-6.845244-231.977696-109.270368a56.029585 56.029585 0 0 0-47.663177 0l-7.859353 3.802913 224.118342 105.467455 14.704597 6.845244a56.283113 56.283113 0 0 1 32.197997 50.705507v296.37369a139.186617 139.186617 0 0 1-7.605826 44.113791c-36.761493 107.242148-195.216203 194.45562-263.41511 228.174782l7.352298 3.802913a56.536641 56.536641 0 0 0 48.677287 0c63.381884-30.676832 232.738278-120.679107 270.767409-231.724168a132.594901 132.594901 0 0 0 7.859353-44.113791V300.685432a56.283113 56.283113 0 0 0-32.451524-50.959034z" fill="#76A6EF" p-id="32005"></path><path d="M599.085568 914.729125a72.508875 72.508875 0 0 1-31.690942-7.352299c-76.058261-36.507965-259.105142-134.369594-301.444241-257.837504a150.595356 150.595356 0 0 1-8.873463-47.663177v-2.788803V410.209328a12.676377 12.676377 0 0 1 12.676376-12.676377 12.676377 12.676377 0 0 1 12.676377 12.676377v177.469275a8.619936 8.619936 0 0 1 0 2.535276v11.915794a129.552571 129.552571 0 0 0 7.352299 39.550296c40.564406 117.636777 230.963585 216.005461 288.514336 243.386434a48.423759 48.423759 0 0 0 41.832043 0c57.297223-27.380974 247.696403-126.763768 288.260809-243.386434a133.862539 133.862539 0 0 0 7.605826-43.606737V277.360899A48.423759 48.423759 0 0 0 887.346376 233.500635L619.621298 108.004505a48.423759 48.423759 0 0 0-41.071461 0L310.064177 233.500635a48.423759 48.423759 0 0 0-27.888029 43.860264v32.451525a12.676377 12.676377 0 0 1-12.676377 12.676377 12.676377 12.676377 0 0 1-12.676377-12.676377v-32.451525a74.283568 74.283568 0 0 1 42.592626-66.931269L567.901681 84.933499a74.537096 74.537096 0 0 1 62.367774 0l268.48566 125.496131a74.283568 74.283568 0 0 1 42.592626 66.931269v320.205278a158.201183 158.201183 0 0 1-9.126991 51.973145c-42.339099 123.46791-224.878925 221.329539-301.190713 257.837504a74.537096 74.537096 0 0 1-31.944469 7.352299z" fill="#2B77EF" p-id="32006"></path><path d="M257.330449 336.686343m12.676377 0l0 0q12.676377 0 12.676377 12.676376l0 12.676377q0 12.676377-12.676377 12.676377l0 0q-12.676377 0-12.676377-12.676377l0-12.676377q0-12.676377 12.676377-12.676376Z" fill="#2B77EF" p-id="32007"></path><path d="M647.509327 529.36727h-25.352753v-28.141556a88.988165 88.988165 0 1 0-50.705508 0v121.186162a25.352754 25.352754 0 0 0 50.705508 0v-42.339099h25.352753a25.352754 25.352754 0 0 0 0-50.705507zM557.760579 416.040461a38.282658 38.282658 0 1 1 38.282658 38.282658A38.536185 38.536185 0 0 1 557.760579 416.040461z" fill="#76A6EF" p-id="32008"></path><path d="M247.189348 809.008142a36.761493 36.761493 0 1 1 36.507965-36.761492 36.761493 36.761493 0 0 1-36.507965 36.761492z m0-47.916704a11.408739 11.408739 0 1 0 11.155211 11.155212 11.408739 11.408739 0 0 0-11.155211-11.40874z" fill="#2B77EF" p-id="32009"></path><path d="M1062.787431 452.294899c-17.746928 0-32.197997 20.028675-33.212107 45.381429 0-25.352754-15.211652-45.381429-33.212107-45.381429 18.000455 0 32.197997-20.028675 33.212107-45.381429 1.01411 24.338643 15.46518 45.381429 33.212107 45.381429z" fill="#76A6EF" p-id="32010"></path><path d="M1034.645875 701.005412h-22.056896a111.552116 111.552116 0 0 0-11.662267-28.395084l15.46518-15.718707a15.718707 15.718707 0 0 0 0-22.056896l-21.54984-21.549841a15.718707 15.718707 0 0 0-21.803369 0l-15.972234 15.972235a121.186162 121.186162 0 0 0-28.141557-12.169321v-21.803369a15.718707 15.718707 0 0 0-15.465179-15.718707h-30.676832a15.718707 15.718707 0 0 0-15.46518 15.718707v21.803369a122.200272 122.200272 0 0 0-28.395084 11.915794l-15.718707-15.718708a15.718707 15.718707 0 0 0-21.803368 0l-21.549841 21.549841a15.718707 15.718707 0 0 0 0 22.056896l15.46518 15.465179a124.228493 124.228493 0 0 0-11.915794 28.648612H760.582608a15.46518 15.46518 0 0 0-15.465179 15.46518v30.423304a15.46518 15.46518 0 0 0 15.465179 15.718707h22.056896a115.608556 115.608556 0 0 0 11.662267 28.395084l-15.46518 15.46518a15.718707 15.718707 0 0 0 0 22.056896l21.54984 21.54984a15.211652 15.211652 0 0 0 21.803369 0l15.972234-15.718707a120.42558 120.42558 0 0 0 28.141557 11.915794v22.056896a15.46518 15.46518 0 0 0 15.46518 15.465179H912.69913a15.46518 15.46518 0 0 0 15.46518-15.465179v-22.056896a111.552116 111.552116 0 0 0 28.395084-11.662267l15.718707 15.46518a15.211652 15.211652 0 0 0 21.803368 0l21.549841-21.54984a15.718707 15.718707 0 0 0 0-22.056896l-15.46518-15.46518a126.763768 126.763768 0 0 0 13.944014-28.395084h21.803368a15.718707 15.718707 0 0 0 15.718708-15.718707v-30.423304a15.46518 15.46518 0 0 0-16.986345-15.46518z" fill="#FFFFFF" p-id="32011"></path><path d="M912.69913 896.475142h-29.916249a28.141557 28.141557 0 0 1-28.141557-28.141556v-12.676377c-4.309968-1.774693-8.619936-3.549386-13.183432-5.831133l-9.126991 9.126991a28.141557 28.141557 0 0 1-40.057351 0L770.72371 836.896171a28.395084 28.395084 0 0 1 0-39.803823l9.126991-9.126991a120.932635 120.932635 0 0 1-5.577606-13.183432H760.582608a28.141557 28.141557 0 0 1-28.141556-28.395084v-30.423304A28.141557 28.141557 0 0 1 760.582608 688.329035h12.676377a88.48111 88.48111 0 0 1 5.577606-13.436959l-9.126991-9.126992a27.380974 27.380974 0 0 1-8.112882-19.775147 27.888029 27.888029 0 0 1 8.112882-20.028676l21.54984-21.54984a29.155667 29.155667 0 0 1 40.057351 0l8.873464 8.873463 13.436959-5.577605v-12.42285a28.395084 28.395084 0 0 1 28.141557-28.395084H912.69913a28.395084 28.395084 0 0 1 28.141556 28.395084V608.721389c4.309968 1.521165 8.619936 3.549386 13.183432 5.577606l9.126992-9.126992a29.155667 29.155667 0 0 1 40.05735 0l21.549841 21.549841a28.395084 28.395084 0 0 1 0 39.803823l-9.126991 9.126991a124.989075 124.989075 0 0 1 5.577605 13.43696h12.676377a28.395084 28.395084 0 0 1 28.395084 28.141556v30.423305a28.395084 28.395084 0 0 1-28.395084 28.395084h-12.676377a101.411014 101.411014 0 0 1-5.577605 13.436959l9.126991 8.873464a28.395084 28.395084 0 0 1 0 39.803823l-21.549841 21.549841a28.141557 28.141557 0 0 1-40.05735 0l-8.873464-8.873464a124.989075 124.989075 0 0 1-13.43696 5.577606v12.676376A28.141557 28.141557 0 0 1 912.69913 896.475142z m-76.058261-78.086481l8.366409 4.817023a110.791533 110.791533 0 0 0 25.352753 10.901684l9.380519 2.535276v31.690942a2.788803 2.788803 0 0 0 2.788803 2.788803H912.69913a2.788803 2.788803 0 0 0 2.788803-2.788803V836.896171l9.380519-2.535275a92.791078 92.791078 0 0 0 25.352753-10.648157l8.366409-4.817023 22.563951 22.563951a3.04233 3.04233 0 0 0 4.05644 0l21.549841-21.549841a3.04233 3.04233 0 0 0 0-4.05644l-22.563951-22.563951 5.070551-8.366409a101.411014 101.411014 0 0 0 10.394629-25.352753l2.535275-9.380519h31.690942a3.04233 3.04233 0 0 0 3.042331-3.04233v-30.423305a3.04233 3.04233 0 0 0-3.042331-2.788803h-30.930359l-2.535276-9.380519a92.791078 92.791078 0 0 0-10.648156-25.352753l-4.817023-8.366409 22.56395-22.563951a3.04233 3.04233 0 0 0 0-4.05644l-21.54984-21.549841h-4.056441l-22.817478 22.563951-8.366409-4.817023a99.129267 99.129267 0 0 0-25.352753-10.648157l-9.380519-2.535275v-31.94447a2.788803 2.788803 0 0 0-2.788803-3.04233h-30.423304a2.788803 2.788803 0 0 0-2.788803 3.04233v31.437415l-9.380519 2.535275a111.805643 111.805643 0 0 0-25.352754 10.648157l-8.366408 4.817023-22.563951-22.310423H811.288115l-21.54984 21.54984v4.056441l22.563951 22.310423-5.070551 8.619936a101.411014 101.411014 0 0 0-10.394629 25.352754l-2.535275 9.380519H760.582608a2.788803 2.788803 0 0 0-2.788803 2.788803v30.423304a2.788803 2.788803 0 0 0 2.788803 3.04233h31.690942l2.535276 9.126992a97.861629 97.861629 0 0 0 10.648156 25.352753l4.817023 8.366409-22.56395 22.563951v4.05644l21.54984 21.549841a3.04233 3.04233 0 0 0 4.056441 0z" fill="#2D79EF" p-id="32012"></path><path d="M898.24806 786.190664a55.015475 55.015475 0 0 1-55.015475-55.015475 53.240783 53.240783 0 0 1 6.338188-25.352754 12.929904 12.929904 0 0 1 16.986345-5.324078 12.676377 12.676377 0 0 1 5.324079 17.239872 28.648612 28.648612 0 0 0-3.295858 13.690487 29.662722 29.662722 0 1 0 29.662721-29.409194 12.676377 12.676377 0 0 1-12.676376-12.676377 12.676377 12.676377 0 0 1 12.676376-12.676376 55.015475 55.015475 0 0 1 0 109.777423z" fill="#2D79EF" p-id="32013"></path></svg>