<?xml version="1.0" standalone="no"?><!DOCTYPE svg PUBLIC "-//W3C//DTD SVG 1.1//EN" "http://www.w3.org/Graphics/SVG/1.1/DTD/svg11.dtd"><svg t="1715596747935" class="icon" viewBox="0 0 1024 1024" version="1.1" xmlns="http://www.w3.org/2000/svg" p-id="54966" width="64" height="64" xmlns:xlink="http://www.w3.org/1999/xlink"><path d="M512 480c48.256 0 95.296 8.96 139.328 26.048a32 32 0 1 1-23.232 59.648A320 320 0 0 0 192 864a32 32 0 1 1-64 0.064 384 384 0 0 1 384-384z" p-id="54967" fill="#ffffff"></path><path d="M883.712 711.36h-14.72a17.856 17.856 0 0 1-16-11.712l-8.512-20.608a17.664 17.664 0 0 1 2.88-19.584l10.496-10.432a12.352 12.352 0 0 0 0-17.472l-17.408-17.408a12.352 12.352 0 0 0-17.472 0l-10.432 10.496a17.664 17.664 0 0 1-19.584 2.88l-20.608-8.448a17.856 17.856 0 0 1-11.712-16v-14.72A12.352 12.352 0 0 0 748.288 576h-24.576a12.352 12.352 0 0 0-12.352 12.288v14.784a17.792 17.792 0 0 1-11.712 16l-20.608 8.448a17.6 17.6 0 0 1-19.52-2.88l-10.56-10.496a12.352 12.352 0 0 0-17.408 0l-17.344 17.408a12.352 12.352 0 0 0 0 17.408l10.432 10.496a17.6 17.6 0 0 1 2.88 19.584l-8.448 20.608a17.792 17.792 0 0 1-16 11.776h-14.72a12.352 12.352 0 0 0-12.352 12.288v24.576c0 6.784 5.568 12.352 12.288 12.352h14.784c6.784 0 13.952 5.312 16 11.776l8.448 20.608c3.2 5.952 1.92 14.72-2.88 19.52l-10.496 10.496a12.416 12.416 0 0 0 0 17.408l17.408 17.408a12.352 12.352 0 0 0 17.408 0l10.496-10.496a17.536 17.536 0 0 1 19.52-2.816l20.672 8.448a17.792 17.792 0 0 1 11.712 16v14.72c0 6.784 5.568 12.288 12.352 12.288h24.576a12.352 12.352 0 0 0 12.352-12.288v-14.72c0-6.784 5.312-13.952 11.712-16l20.672-8.448a17.6 17.6 0 0 1 19.52 2.816l10.432 10.496a12.352 12.352 0 0 0 17.472 0l17.408-17.408a12.352 12.352 0 0 0 0-17.408l-10.496-10.496a17.664 17.664 0 0 1-2.88-19.52l8.512-20.608a17.92 17.92 0 0 1 16-11.776h14.72a12.352 12.352 0 0 0 12.288-12.288v-24.64a12.352 12.352 0 0 0-12.288-12.352m-86.144 24.64a61.504 61.504 0 1 1-123.072 0 61.504 61.504 0 0 1 123.072 0" p-id="54968" fill="#ffffff"></path><path d="M512 128a192 192 0 1 0 0 384 192 192 0 0 0 0-384z m0 54.848a137.152 137.152 0 1 1 0 274.304 137.152 137.152 0 0 1 0-274.304z" p-id="54969" fill="#ffffff"></path></svg>