<svg xmlns="http://www.w3.org/2000/svg" xmlns:xlink="http://www.w3.org/1999/xlink" width="48.848388671875" height="52.2001953125" viewBox="0 0 48.848388671875 52.2001953125" fill="none">
<path d="M43.7454 0L4.86057 0C2.187 0 0 2.1876 0 4.86059L0 49.3356C0 52.0086 1.70132 52.9806 4.13132 51.5226L20.4144 40.8291C22.6014 39.3711 26.247 39.3711 28.434 40.8291L44.7171 51.5226C46.9047 52.9806 48.8484 52.0086 48.8484 49.3356L48.8484 4.86059C48.606 2.1876 46.4187 0 43.7454 0ZM36.6975 19.4427L33.0522 23.088C32.0802 24.06 31.5945 25.7613 31.8372 27.2196L32.8092 32.3232C33.0522 33.5385 32.3229 34.2672 31.1076 33.5385L26.7336 31.1082C25.5177 30.3789 23.5737 30.3789 22.3587 31.1082L17.9844 33.5385C16.7688 34.2675 16.0401 33.5385 16.2831 32.3232L17.2551 27.2196C17.4981 26.004 16.7688 24.06 16.0395 23.088L11.9085 19.4427C10.9362 18.4707 11.1792 17.4984 12.6378 17.4984L17.7414 16.7691C18.957 16.5258 20.6577 15.5538 21.144 14.3388L23.3313 9.72088C23.8176 8.50558 24.7899 8.50558 25.5189 9.72088L27.7062 14.3388C28.1919 15.5541 29.8935 16.7691 31.1082 16.7691L36.2124 17.4984C37.4271 17.7414 37.6698 18.4707 36.6975 19.4427Z"   fill="#4DAFFF" >
</path>
</svg>
