<svg xmlns="http://www.w3.org/2000/svg" xmlns:xlink="http://www.w3.org/1999/xlink" width="59.9976806640625" height="59.9970703125" viewBox="0 0 59.9976806640625 59.9970703125" fill="none">
<path d="M42.7163 39.0761C48.3434 32.0611 47.2214 21.8231 40.2063 16.1961C33.1913 10.5691 22.9434 11.6911 17.3163 18.7061C11.6893 25.7211 12.8213 35.9591 19.8363 41.5861C25.3508 45.9752 33.0767 46.3575 38.9663 42.4561L42.4563 45.9361L41.9663 46.4261C41.3286 47.0638 41.3286 48.1958 41.9663 48.9461L47.4763 54.4561C35.6971 62.8216 19.3101 61.6999 8.80634 51.1961C-2.93538 39.4544 -2.93538 20.4353 8.80634 8.80609C20.5481 -2.93562 39.5672 -2.93562 51.1963 8.80609C61.7001 19.3099 62.8218 35.7044 54.4563 47.4461L48.9463 41.9261C48.3086 41.2884 47.1766 41.2884 46.4263 41.9261L45.9363 42.4161C46.1989 42.4536 42.7163 39.0761 42.7163 39.0761ZM30.0763 40.2061C23.8116 40.2061 18.8163 35.2108 18.8163 28.9461C18.8163 22.6813 23.8116 17.6961 30.0763 17.6961C36.3411 17.6961 41.3263 22.6813 41.3263 28.9461C41.3263 35.2108 36.3411 40.2061 30.0763 40.2061Z"   fill="#8C70CF" >
</path>
</svg>
