<svg xmlns="http://www.w3.org/2000/svg" xmlns:xlink="http://www.w3.org/1999/xlink" width="60" height="60" viewBox="0 0 60 60" fill="none">
<path d="M13.7018 14.0347L37.1618 14.0347L37.1618 17.0892L13.7018 17.0892L13.7018 14.0347ZM13.7018 23.291L37.1618 23.291L37.1618 26.3456L13.7018 26.3456L13.7018 23.291ZM13.7018 34.7729L22.1891 34.7729L22.1891 37.8274L13.7018 37.8274L13.7018 34.7729Z" stroke="rgba(255, 255, 255, 1)" stroke-width="1"      fill="#FFFFFF" >
</path>
<path d="M6.76907 8.35101L47.8582 8.35101L47.8582 22.0747L50.9073 22.0747L50.9073 6.80191C50.9073 6.77695 50.9068 6.75201 50.9057 6.72709C50.9045 6.70217 50.9028 6.67726 50.9004 6.65238C50.8981 6.62753 50.8951 6.60277 50.8915 6.57808C50.8879 6.55336 50.8837 6.52875 50.8789 6.50425C50.8742 6.47976 50.8688 6.4554 50.8627 6.43119C50.8568 6.40693 50.8502 6.38285 50.843 6.35894C50.8358 6.33503 50.828 6.31132 50.8197 6.28781C50.8113 6.26429 50.8024 6.24099 50.7929 6.21791C50.7835 6.19482 50.7734 6.17197 50.7628 6.14935C50.7522 6.12678 50.741 6.10445 50.7293 6.08238C50.7176 6.06035 50.7054 6.03861 50.6926 6.01716C50.6798 5.99572 50.6665 5.97461 50.6527 5.95382C50.6388 5.93304 50.6245 5.91262 50.6097 5.89254C50.5948 5.87246 50.5796 5.85275 50.5637 5.83342C50.548 5.81409 50.5317 5.79516 50.515 5.77664C50.4982 5.75811 50.4811 5.74 50.4634 5.72232C50.4458 5.70464 50.4278 5.6874 50.4093 5.6706C50.3909 5.65381 50.372 5.63748 50.3527 5.62161C50.3334 5.60574 50.3138 5.59036 50.2937 5.57546C50.2738 5.56056 50.2534 5.54617 50.2326 5.53227C50.2119 5.51837 50.1908 5.50499 50.1694 5.49213C50.148 5.47928 50.1263 5.46695 50.1043 5.45516C50.0823 5.44336 50.06 5.43212 50.0374 5.42142C50.0149 5.41073 49.9921 5.40059 49.9691 5.39102C49.946 5.38145 49.9227 5.37245 49.8992 5.36402C49.8757 5.35559 49.8521 5.34774 49.8281 5.34048C49.8043 5.33322 49.7802 5.32655 49.756 5.32047C49.7318 5.31439 49.7074 5.30891 49.683 5.30403C49.6585 5.29915 49.6339 5.29488 49.6092 5.29121C49.5846 5.28753 49.5598 5.28447 49.5349 5.28202C49.5101 5.27956 49.4852 5.27772 49.4602 5.2765C49.4353 5.27527 49.4104 5.27466 49.3854 5.27466L5.24725 5.27466C5.22225 5.27466 5.19727 5.27527 5.1723 5.2765C5.14734 5.27772 5.12242 5.27956 5.09754 5.28201C5.07267 5.28446 5.04787 5.28752 5.02315 5.29119C4.99842 5.29486 4.9738 5.29913 4.94929 5.304C4.92478 5.30888 4.90039 5.31436 4.87615 5.32043C4.8519 5.3265 4.82782 5.33317 4.8039 5.34042C4.77998 5.34768 4.75625 5.35552 4.73272 5.36394C4.70919 5.37236 4.68587 5.38135 4.66278 5.39091C4.63969 5.40048 4.61685 5.41061 4.59425 5.42129C4.57165 5.43198 4.54934 5.44321 4.52729 5.455C4.50525 5.46678 4.48351 5.4791 4.46207 5.49195C4.44063 5.5048 4.41952 5.51816 4.39874 5.53205C4.37795 5.54594 4.35752 5.56032 4.33745 5.57521C4.31737 5.59011 4.29767 5.60548 4.27835 5.62133C4.25903 5.63719 4.24011 5.65351 4.22159 5.67029C4.20307 5.68708 4.18497 5.70431 4.1673 5.72199C4.14962 5.73966 4.13239 5.75776 4.11561 5.77628C4.09882 5.7948 4.0825 5.81372 4.06665 5.83304C4.05079 5.85235 4.03541 5.87204 4.02053 5.89213C4.00564 5.9122 3.99125 5.93263 3.97736 5.95341C3.96347 5.9742 3.95011 5.99531 3.93726 6.01675C3.92441 6.0382 3.91209 6.05994 3.90031 6.08197C3.88853 6.104 3.87729 6.12632 3.86661 6.14894C3.85592 6.17152 3.84579 6.19437 3.83623 6.2175C3.82666 6.24058 3.81767 6.26388 3.80925 6.2874C3.80083 6.31095 3.79299 6.33468 3.78574 6.35859C3.77848 6.3825 3.77181 6.40658 3.76574 6.43084C3.75967 6.45509 3.75419 6.47947 3.74931 6.50396C3.74444 6.52849 3.74017 6.55312 3.7365 6.57785C3.73283 6.60257 3.72977 6.62738 3.72732 6.65226C3.72488 6.6771 3.72304 6.70201 3.72181 6.72697C3.72058 6.75193 3.71997 6.77691 3.71997 6.80191L3.71997 51.6547C3.71997 51.6797 3.72058 51.7046 3.72181 51.7296C3.72304 51.7546 3.72488 51.7795 3.72732 51.8044C3.72977 51.8293 3.73283 51.854 3.7365 51.8787C3.74017 51.9034 3.74444 51.928 3.74931 51.9526C3.75419 51.9771 3.75967 52.0015 3.76574 52.0257C3.77181 52.05 3.77848 52.0741 3.78574 52.098C3.79299 52.1219 3.80083 52.1457 3.80925 52.1692C3.81767 52.1927 3.82666 52.216 3.83623 52.2391C3.84579 52.2622 3.85592 52.2851 3.86661 52.3076C3.87729 52.3302 3.88853 52.3526 3.90031 52.3746C3.91209 52.3966 3.92441 52.4184 3.93726 52.4398C3.95011 52.4613 3.96347 52.4823 3.97736 52.5031C3.99125 52.5239 4.00564 52.5443 4.02053 52.5644C4.03542 52.5845 4.05079 52.6042 4.06665 52.6236C4.0825 52.6428 4.09882 52.6618 4.11561 52.6803C4.13239 52.6988 4.14962 52.7169 4.1673 52.7346C4.18497 52.7522 4.20307 52.7695 4.22159 52.7863C4.24011 52.8031 4.25903 52.8194 4.27835 52.8353C4.29767 52.8511 4.31737 52.8665 4.33745 52.8814C4.35752 52.8963 4.37795 52.9106 4.39874 52.9245C4.41952 52.9384 4.44063 52.9518 4.46207 52.9646C4.48351 52.9775 4.50525 52.9898 4.52729 53.0015C4.54934 53.0133 4.57165 53.0246 4.59425 53.0353C4.61685 53.046 4.63969 53.0561 4.66278 53.0656C4.68587 53.0752 4.70919 53.0842 4.73272 53.0927C4.75625 53.101 4.77998 53.1089 4.8039 53.1162C4.82782 53.1234 4.8519 53.1301 4.87615 53.1361C4.90039 53.1422 4.92477 53.1477 4.94929 53.1525C4.9738 53.1574 4.99842 53.1617 5.02315 53.1654C5.04787 53.1691 5.07267 53.1721 5.09754 53.1746C5.12242 53.177 5.14734 53.1788 5.1723 53.1801C5.19727 53.1813 5.22225 53.1819 5.24725 53.1819L23.0836 53.1819L23.0836 50.1329L6.80177 50.1329L6.76907 8.35101Z" stroke="rgba(255, 255, 255, 1)" stroke-width="1"      fill="#FFFFFF" >
</path>
<path d="M55.8368 32.5114L49.0024 25.6396C48.9847 25.6215 48.9648 25.6004 48.9462 25.5833C48.9275 25.5662 48.9094 25.5526 48.8899 25.5364C48.8705 25.5203 48.8445 25.5047 48.8243 25.4896C48.8041 25.4744 48.789 25.4568 48.7681 25.4427C48.7471 25.4285 48.7241 25.4183 48.7024 25.4052C48.6808 25.3921 48.6591 25.3797 48.6368 25.3677C48.6145 25.3557 48.594 25.3411 48.5712 25.3302C48.5484 25.3193 48.5196 25.3118 48.4962 25.3021C48.4729 25.2923 48.4544 25.2739 48.4306 25.2739C48.4068 25.2739 48.3798 25.2458 48.3556 25.2458C48.3314 25.2458 48.3051 25.2271 48.2806 25.2271C48.256 25.2271 48.2303 25.2083 48.2056 25.2083C48.1808 25.2083 48.1556 25.1989 48.1306 25.1989C48.1055 25.1989 48.0807 25.1896 48.0556 25.1896C48.0304 25.1896 48.0058 25.1802 47.9806 25.1802C47.9553 25.1802 47.9309 25.1802 47.9056 25.1802C47.8803 25.1802 47.8558 25.1802 47.8306 25.1802C47.8053 25.1802 47.7807 25.1896 47.7556 25.1896C47.7304 25.1896 47.7056 25.1989 47.6806 25.1989C47.6555 25.1989 47.6303 25.2083 47.6056 25.2083C47.5808 25.2083 47.5551 25.2271 47.5306 25.2271C47.506 25.2271 47.4798 25.2458 47.4556 25.2458C47.4314 25.2458 47.4137 25.2739 47.3899 25.2739C47.3661 25.2739 47.3383 25.2923 47.3149 25.3021C47.2916 25.3118 47.2721 25.3193 47.2493 25.3302C47.2265 25.3411 47.2059 25.3557 47.1837 25.3677C47.1614 25.3797 47.1303 25.3921 47.1087 25.4052C47.0871 25.4183 47.0734 25.4285 47.0524 25.4427C47.0315 25.4568 47.007 25.4744 46.9868 25.4896C46.9666 25.5047 46.9501 25.5203 46.9306 25.5364C46.9111 25.5526 46.8929 25.5662 46.8743 25.5833C46.8557 25.6004 46.8358 25.6215 46.8181 25.6396L27.2712 45.2708C27.2517 45.2908 27.2333 45.3154 27.2149 45.3364C27.1966 45.3575 27.1759 45.3801 27.1587 45.402C27.1415 45.424 27.1278 45.4449 27.1118 45.4677C27.0958 45.4905 27.0797 45.5096 27.0649 45.5333C27.0502 45.5569 27.0409 45.5839 27.0274 45.6083C27.014 45.6327 27.0021 45.6582 26.9899 45.6833C26.9778 45.7084 26.9632 45.7326 26.9524 45.7583C26.9417 45.784 26.9337 45.807 26.9243 45.8333C26.9243 45.8595 26.8962 45.891 26.8962 45.9177C26.8962 45.9444 26.8774 45.9655 26.8774 45.9927C26.8774 46.0198 26.8587 46.0496 26.8587 46.077C26.8587 46.1045 26.8399 46.1338 26.8399 46.1614C26.8399 46.1891 26.8306 46.218 26.8306 46.2458C26.8306 46.2736 26.8306 46.3023 26.8306 46.3302C26.8306 46.3581 26.8306 46.3867 26.8306 46.4145C26.8306 46.4424 26.8399 46.4711 26.8399 46.4989L27.4118 52.7708C27.4118 52.7928 27.4212 52.8146 27.4212 52.8364C27.4212 52.8583 27.4306 52.8803 27.4306 52.902C27.4306 52.9238 27.4493 52.9461 27.4493 52.9677C27.4493 52.9892 27.4587 53.0027 27.4587 53.0239C27.4587 53.0452 27.4774 53.0685 27.4774 53.0895C27.4774 53.1106 27.5056 53.1345 27.5056 53.1552C27.5056 53.1759 27.5243 53.1911 27.5243 53.2114C27.5243 53.2318 27.543 53.2571 27.5524 53.277C27.5619 53.297 27.5703 53.3137 27.5806 53.3333C27.5908 53.3528 27.6069 53.3705 27.6181 53.3895C27.6292 53.4086 27.6342 53.4272 27.6462 53.4458C27.6581 53.4644 27.671 53.484 27.6837 53.502C27.6964 53.5201 27.717 53.5408 27.7306 53.5583C27.744 53.5758 27.7538 53.5883 27.7681 53.6052C27.7823 53.6221 27.8 53.6452 27.8149 53.6614C27.8299 53.6777 27.8462 53.6927 27.8618 53.7083C27.8774 53.7239 27.8924 53.7402 27.9087 53.7552C27.925 53.7701 27.9387 53.7785 27.9556 53.7927C27.9725 53.8069 27.9943 53.8261 28.0118 53.8395C28.0294 53.853 28.0406 53.8644 28.0587 53.877C28.0768 53.8898 28.0963 53.9027 28.1149 53.9145C28.1336 53.9264 28.1521 53.941 28.1712 53.952C28.1903 53.9631 28.2078 53.9699 28.2274 53.9802C28.247 53.9904 28.2731 53.9989 28.2931 54.0083C28.3131 54.0083 28.3289 54.0364 28.3493 54.0364C28.3697 54.0364 28.3942 54.0645 28.4149 54.0645C28.4357 54.0645 28.4501 54.0833 28.4712 54.0833C28.4922 54.0833 28.5155 54.102 28.5368 54.102C28.5581 54.102 28.5809 54.1208 28.6024 54.1208C28.624 54.1208 28.6463 54.1302 28.6681 54.1302C28.6898 54.1302 28.7118 54.1395 28.7337 54.1395C28.7556 54.1395 28.7773 54.1489 28.7993 54.1489L35.0806 54.6927L35.2118 54.6927C35.2372 54.6927 35.2614 54.6927 35.2868 54.6927C35.3122 54.6927 35.3459 54.6833 35.3712 54.6833C35.3964 54.6833 35.4211 54.6739 35.4462 54.6739C35.4713 54.6739 35.4963 54.6645 35.5212 54.6645C35.5461 54.6645 35.5622 54.6458 35.5868 54.6458C35.6114 54.6458 35.6375 54.627 35.6618 54.627C35.6861 54.627 35.713 54.6083 35.7368 54.6083C35.7607 54.6083 35.7884 54.59 35.8118 54.5802C35.8352 54.5703 35.8546 54.5537 35.8774 54.5427C35.9003 54.5317 35.9208 54.5267 35.9431 54.5145C35.9653 54.5024 35.9871 54.4903 36.0087 54.477C36.0303 54.4637 36.0535 54.4445 36.0743 54.4302C36.0952 54.4158 36.1198 54.3988 36.1399 54.3833C36.16 54.3679 36.1769 54.3529 36.1962 54.3364C36.2155 54.32 36.234 54.307 36.2524 54.2895C36.2709 54.2721 36.2912 54.2516 36.3087 54.2333L55.8649 34.6395C55.8819 34.6218 55.8957 34.6019 55.9118 34.5833C55.9279 34.5647 55.9435 34.5464 55.9587 34.5271C55.9739 34.5077 55.9914 34.4908 56.0056 34.4708C56.0198 34.4508 56.0299 34.4352 56.0431 34.4146C56.0562 34.3939 56.0684 34.3703 56.0806 34.3489C56.0928 34.3276 56.1069 34.3052 56.1181 34.2833C56.1292 34.2614 56.1455 34.2401 56.1556 34.2177C56.1656 34.1952 56.1837 34.175 56.1837 34.1521C56.1837 34.1292 56.2024 34.1003 56.2024 34.077C56.2024 34.0537 56.2306 34.035 56.2306 34.0114C56.2306 33.9878 56.2493 33.9603 56.2493 33.9364C56.2493 33.9125 56.2587 33.8856 56.2587 33.8614C56.2587 33.8372 56.2681 33.8202 56.2681 33.7958C56.2681 33.7715 56.2774 33.7453 56.2774 33.7208C56.2774 33.6963 56.2868 33.6703 56.2868 33.6458C56.2868 33.6212 56.2868 33.5954 56.2868 33.5708C56.2868 33.5462 56.2774 33.5203 56.2774 33.4958C56.2774 33.4712 56.2774 33.4452 56.2774 33.4208C56.2774 33.3964 56.2681 33.3794 56.2681 33.3552C56.2681 33.331 56.2493 33.3043 56.2493 33.2802C56.2493 33.2561 56.2306 33.2289 56.2306 33.2052C56.2306 33.1814 56.2118 33.1629 56.2118 33.1395C56.2118 33.1161 56.1931 33.0876 56.1931 33.0645C56.1931 33.0415 56.1746 33.0215 56.1649 32.9989C56.1553 32.9763 56.1475 32.9554 56.1368 32.9333C56.1261 32.9112 56.1111 32.8892 56.0993 32.8677C56.0875 32.8461 56.0746 32.823 56.0618 32.802C56.049 32.7811 56.0381 32.7568 56.0243 32.7364C56.0104 32.7161 55.9923 32.6997 55.9774 32.6802C55.9626 32.6605 55.9463 32.6428 55.9306 32.6239C55.9148 32.6051 55.9003 32.5857 55.8837 32.5677C55.867 32.5496 55.8543 32.5287 55.8368 32.5114ZM34.6024 51.6552L30.3087 51.2708L29.9149 46.977L47.9149 28.9208L52.6024 33.5989L34.6024 51.6552Z" stroke="rgba(255, 255, 255, 1)" stroke-width="1"      fill="#FFFFFF" >
</path>
</svg>
