<svg xmlns="http://www.w3.org/2000/svg" xmlns:xlink="http://www.w3.org/1999/xlink" width="42.7467041015625" height="29.59912109375" viewBox="0 0 42.7467041015625 29.59912109375" fill="none">
<path d="M19.4507 29.1766L4.26806 20.2852L2.25627 20.2852C1.01218 20.2852 4.90303e-07 19.4532 4.90303e-07 18.4246L4.90303e-07 10.9777C4.90303e-07 9.94916 1.01218 9.11716 2.25627 9.11716L4.65977 9.11716L19.4507 0.426875C19.4507 0.426875 22.4591 -1.22798 22.4591 1.97888L22.4591 27.636C22.4591 30.8179 19.4507 29.1743 19.4507 29.1743L19.4507 29.1766ZM32.4148 9.99716C30.6129 9.30688 29.466 11.5903 29.466 11.5903C29.466 11.5903 34.0568 15.2566 29.466 17.9652C28.5635 18.708 30.2839 20.2509 32.4148 19.5583C37.3347 17.0097 37.0056 12.1754 32.4148 9.99716ZM33.0791 7.17428C41.0075 12.3126 41.139 17.14 33.0791 22.4337C31.8789 23.316 33.4771 24.9777 34.6773 24.6143C45.6671 20.7217 45.2035 8.628 34.6773 4.99372C34.1446 4.628 31.5468 5.97888 33.0791 7.17428Z"   fill="#3979F0" >
</path>
</svg>
