<svg xmlns="http://www.w3.org/2000/svg" xmlns:xlink="http://www.w3.org/1999/xlink" width="59.966064453125" height="59.966796875" viewBox="0 0 59.966064453125 59.966796875" fill="none">
<path d="M22.0774 59.8143C11.6064 56.9634 3.27578 49.4861 0.166733 39.8731C-0.409829 38.2724 0.558843 36.6672 2.30248 36.1368C2.35188 36.1204 2.40163 36.1053 2.45176 36.0914C2.50188 36.0775 2.55231 36.0647 2.60304 36.0533C2.65378 36.0417 2.70475 36.0315 2.75598 36.0224C2.80721 36.0133 2.85862 36.0055 2.91022 35.9989C2.96183 35.9923 3.01355 35.9869 3.06541 35.9828C3.11727 35.9786 3.1692 35.9757 3.22119 35.9741C3.27319 35.9725 3.3252 35.9721 3.37721 35.9729C3.42922 35.9738 3.48119 35.9759 3.5331 35.9793C3.58502 35.9826 3.63682 35.9872 3.68852 35.993C3.74021 35.9988 3.79174 36.0059 3.84309 36.0142C3.89445 36.0225 3.94557 36.0321 3.99647 36.0428C4.04737 36.0535 4.09799 36.0655 4.14831 36.0787C4.19864 36.0919 4.24862 36.1062 4.29826 36.1218C4.3479 36.1373 4.39713 36.1541 4.44597 36.172C4.4948 36.19 4.54318 36.2091 4.59111 36.2293C4.63903 36.2495 4.68643 36.2709 4.73333 36.2934C4.78022 36.3159 4.82655 36.3396 4.87232 36.3643C4.91808 36.3891 4.96322 36.4149 5.00776 36.4418C5.05228 36.4687 5.09613 36.4966 5.13932 36.5256C5.18251 36.5546 5.22497 36.5846 5.26672 36.6157C5.30847 36.6468 5.34945 36.6788 5.38966 36.7118C5.42988 36.7448 5.46928 36.7787 5.50786 36.8136C5.54645 36.8485 5.58418 36.8843 5.62105 36.921C5.65792 36.9577 5.69389 36.9953 5.72896 37.0337C5.76403 37.0721 5.79816 37.1113 5.83136 37.1514C5.86453 37.1914 5.89676 37.2323 5.92799 37.2739C5.95922 37.3155 5.98945 37.3578 6.01869 37.4009C6.04787 37.4439 6.076 37.4876 6.10313 37.5321C6.1302 37.5765 6.15627 37.6215 6.18123 37.6671C6.20619 37.7128 6.23004 37.759 6.25277 37.8058C6.27551 37.8526 6.29707 37.8998 6.31758 37.9477C6.33803 37.9955 6.35736 38.0438 6.37553 38.0926L6.37553 38.2724C8.89412 45.9296 15.4857 51.9816 23.8256 54.1173C23.8746 54.1258 23.9233 54.1355 23.9718 54.1465C24.0203 54.1575 24.0684 54.1698 24.1163 54.1832C24.1641 54.1966 24.2116 54.2113 24.2587 54.2272C24.3058 54.2431 24.3524 54.2602 24.3987 54.2785C24.4448 54.2968 24.4906 54.3162 24.5358 54.3369C24.5811 54.3575 24.6257 54.3793 24.6698 54.4022C24.7139 54.4252 24.7574 54.4492 24.8003 54.4744C24.8432 54.4995 24.8854 54.5258 24.9269 54.5531C24.9684 54.5804 25.0092 54.6088 25.0492 54.6382C25.0893 54.6676 25.1286 54.698 25.1671 54.7294C25.2056 54.7609 25.2432 54.7933 25.2802 54.8266C25.317 54.86 25.3529 54.8943 25.388 54.9295C25.4231 54.9647 25.4572 55.0008 25.4905 55.0378C25.5237 55.0747 25.556 55.1125 25.5873 55.1511C25.6186 55.1898 25.6488 55.2292 25.6781 55.2693C25.7074 55.3095 25.7356 55.3504 25.7628 55.392C25.79 55.4337 25.8161 55.476 25.8411 55.5189C25.866 55.5619 25.8899 55.6054 25.9127 55.6497C25.9355 55.6938 25.957 55.7385 25.9775 55.7838C25.998 55.8291 26.0173 55.8749 26.0354 55.9212C26.0535 55.9675 26.0705 56.0142 26.0862 56.0614C26.1019 56.1086 26.1164 56.1561 26.1297 56.2039C26.1429 56.2518 26.155 56.3 26.1659 56.3486C26.1766 56.3971 26.1862 56.4458 26.1946 56.4949C26.2028 56.5438 26.2099 56.593 26.2157 56.6424C26.2215 56.6918 26.226 56.7413 26.2293 56.7909C26.2325 56.8405 26.2345 56.8901 26.2352 56.9398C26.2359 56.9895 26.2353 57.0392 26.2334 57.0889C26.2315 57.1385 26.2284 57.1881 26.224 57.2377C26.2196 57.2872 26.214 57.3365 26.2071 57.3857C26.2001 57.4349 26.1919 57.484 26.1825 57.5328C26.173 57.5816 26.1623 57.6301 26.1504 57.6783C25.763 59.4545 23.8256 60.3445 22.0774 59.8143ZM0.286675 19.9367C3.46949 10.3699 11.6203 2.96636 22.1604 0.0787441C23.9502 -0.281022 25.7399 0.62308 26.1366 2.24671C26.5333 3.69052 25.7399 5.31421 23.9502 5.85392C15.6011 8.20646 9.03709 14.1569 6.44936 21.7403C6.05268 23.364 4.26285 24.2681 2.47316 23.9083C0.683355 23.5485 -0.308404 21.9248 0.0883342 20.2965L0.286674 19.9368L0.286675 19.9367ZM37.9545 0.0787441C48.3886 2.96636 56.6593 10.3652 59.8096 20.1074C60.4049 21.7311 59.2189 23.3548 57.6418 23.8945C55.8751 24.2542 54.0993 23.5347 53.7071 21.911C51.1471 14.1523 44.6477 8.19721 36.1786 5.85392C36.1288 5.84537 36.0794 5.83554 36.0302 5.82445C35.981 5.81336 35.9321 5.801 35.8835 5.7874C35.8349 5.7738 35.7868 5.75896 35.739 5.74288C35.6912 5.72681 35.6437 5.70951 35.5968 5.691C35.5499 5.67249 35.5035 5.65279 35.4576 5.6319C35.4117 5.611 35.3663 5.58894 35.3215 5.56572C35.2767 5.5425 35.2325 5.51815 35.1891 5.49266C35.1455 5.46717 35.1027 5.44058 35.0605 5.41289C35.0183 5.38521 34.9769 5.35645 34.9362 5.32663C34.8955 5.29682 34.8556 5.26598 34.8165 5.23412C34.7774 5.20225 34.7391 5.1694 34.7017 5.13558C34.6643 5.10175 34.6278 5.06698 34.5922 5.03128C34.5565 4.99557 34.5218 4.95898 34.488 4.92149C34.4543 4.88401 34.4215 4.84568 34.3897 4.80651C34.358 4.76734 34.3272 4.72739 34.2974 4.68664C34.2677 4.64589 34.239 4.6044 34.2114 4.56219C34.1838 4.51997 34.1573 4.47707 34.1319 4.43348C34.1065 4.3899 34.0822 4.3457 34.0591 4.30088C34.0359 4.25604 34.014 4.21065 33.9932 4.1647C33.9724 4.11874 33.9527 4.07229 33.9343 4.02533C33.9159 3.97836 33.8987 3.93096 33.8828 3.88311C33.8667 3.83527 33.852 3.78705 33.8385 3.73845C33.825 3.68984 33.8128 3.64093 33.8017 3.59169C33.7907 3.54246 33.781 3.49298 33.7726 3.44325C33.7641 3.39352 33.7569 3.34361 33.7511 3.29351C33.7451 3.2434 33.7405 3.19319 33.7372 3.14285C33.7339 3.09251 33.7318 3.04213 33.7311 2.99169C33.7304 2.94125 33.731 2.89082 33.7328 2.84041C33.7347 2.79001 33.7379 2.73967 33.7423 2.68942C33.7467 2.63917 33.7525 2.58907 33.7595 2.53912C33.7665 2.48917 33.7747 2.43942 33.7843 2.38989C33.7939 2.34036 33.8047 2.29112 33.8169 2.24214C34.2135 0.618451 35.9849 -0.281081 37.7562 0.078743L37.9545 0.078743L37.9545 0.0787441ZM59.8652 39.7347C56.6593 49.2739 48.4486 56.8296 37.8392 59.8881C36.0356 60.2479 34.2321 59.3484 33.8307 57.7291C33.4341 56.11 34.2321 54.6708 36.0356 54.1311C44.6477 51.7925 51.2577 45.6714 53.6564 38.1156C54.2561 36.4965 56.0596 35.5971 57.8632 36.1368C59.4639 36.4965 60.2619 38.1202 59.8652 39.7347ZM14.9922 29.9833C14.992 29.7379 14.9978 29.4926 15.0096 29.2475C15.0214 29.0024 15.0393 28.7577 15.0632 28.5134C15.087 28.2692 15.1168 28.0257 15.1526 27.7829C15.1885 27.5401 15.2303 27.2984 15.278 27.0577C15.3257 26.8169 15.3792 26.5775 15.4387 26.3394C15.4982 26.1013 15.5635 25.8649 15.6346 25.63C15.7057 25.3951 15.7825 25.1621 15.8651 24.931C15.9476 24.6998 16.0358 24.4709 16.1296 24.2442C16.2234 24.0174 16.3228 23.793 16.4276 23.5712C16.5325 23.3493 16.6427 23.1301 16.7583 22.9136C16.8739 22.6972 16.9948 22.4837 17.1209 22.2731C17.247 22.0626 17.3781 21.8553 17.5144 21.6512C17.6507 21.4471 17.792 21.2465 17.9381 21.0494C18.0843 20.8522 18.2352 20.6588 18.3909 20.4691C18.5465 20.2794 18.7068 20.0936 18.8715 19.9117C19.0363 19.7299 19.2055 19.5522 19.3791 19.3787C19.5526 19.2052 19.7302 19.036 19.9121 18.8712C20.0939 18.7063 20.2797 18.5462 20.4694 18.3905C20.6592 18.2348 20.8526 18.0839 21.0497 17.9378C21.2469 17.7916 21.4475 17.6504 21.6516 17.5141C21.8556 17.3778 22.0629 17.2466 22.2735 17.1205C22.484 16.9944 22.6975 16.8735 22.914 16.7579C23.1304 16.6423 23.3496 16.5321 23.5715 16.4272C23.7934 16.3224 24.0178 16.2231 24.2445 16.1293C24.4713 16.0355 24.7002 15.9473 24.9313 15.8647C25.1624 15.7822 25.3954 15.7053 25.6303 15.6342C25.8652 15.5631 26.1016 15.4978 26.3398 15.4383C26.5778 15.3789 26.8172 15.3253 27.058 15.2776C27.2987 15.2299 27.5405 15.1881 27.7833 15.1523C28.026 15.1164 28.2696 15.0866 28.5138 15.0628C28.758 15.0389 29.0027 15.021 29.2478 15.0092C29.493 14.9974 29.7383 14.9916 29.9837 14.9918C30.229 14.9916 30.4743 14.9974 30.7195 15.0092C30.9646 15.021 31.2093 15.0389 31.4535 15.0628C31.6978 15.0866 31.9412 15.1164 32.184 15.1523C32.4268 15.1881 32.6686 15.2299 32.9093 15.2776C33.15 15.3253 33.3894 15.3789 33.6275 15.4383C33.8656 15.4978 34.1021 15.5631 34.337 15.6342C34.5718 15.7053 34.8049 15.7822 35.036 15.8647C35.2671 15.9473 35.496 16.0355 35.7228 16.1293C35.9496 16.2231 36.1739 16.3224 36.3958 16.4272C36.6176 16.5321 36.8368 16.6423 37.0533 16.7579C37.2698 16.8735 37.4833 16.9944 37.6938 17.1204C37.9044 17.2466 38.1117 17.3778 38.3157 17.5141C38.5198 17.6504 38.7204 17.7916 38.9176 17.9377C39.1147 18.0839 39.3081 18.2348 39.4979 18.3905C39.6876 18.5462 39.8733 18.7063 40.0552 18.8712C40.2371 19.036 40.4147 19.2052 40.5883 19.3787C40.7618 19.5521 40.931 19.7299 41.0958 19.9117C41.2605 20.0936 41.4208 20.2794 41.5765 20.4691C41.7321 20.6588 41.883 20.8522 42.0292 21.0493C42.1754 21.2465 42.3166 21.4471 42.4529 21.6512C42.5892 21.8553 42.7204 22.0626 42.8465 22.2731C42.9726 22.4837 43.0934 22.6971 43.2091 22.9136C43.3246 23.1301 43.4348 23.3493 43.5397 23.5712C43.6446 23.793 43.7439 24.0173 43.8377 24.2442C43.9315 24.4709 44.0197 24.6998 44.1022 24.931C44.1848 25.1621 44.2616 25.3951 44.3327 25.63C44.4038 25.8649 44.4691 26.1013 44.5286 26.3394C44.5881 26.5775 44.6417 26.8169 44.6894 27.0577C44.7371 27.2984 44.7789 27.5401 44.8147 27.7829C44.8505 28.0257 44.8804 28.2692 44.9042 28.5134C44.928 28.7577 44.9459 29.0024 44.9578 29.2475C44.9696 29.4926 44.9754 29.7379 44.9752 29.9833C44.9754 30.2287 44.9696 30.474 44.9578 30.7191C44.9459 30.9642 44.928 31.2089 44.9042 31.4531C44.8804 31.6974 44.8505 31.9409 44.8147 32.1837C44.7789 32.4265 44.7371 32.6682 44.6894 32.9089C44.6417 33.1497 44.5881 33.3891 44.5286 33.6272C44.4691 33.8653 44.4038 34.1017 44.3327 34.3366C44.2616 34.5715 44.1848 34.8045 44.1022 35.0356C44.0197 35.2668 43.9315 35.4957 43.8377 35.7224C43.7439 35.9493 43.6446 36.1736 43.5397 36.3955C43.4348 36.6173 43.3246 36.8365 43.2091 37.053C43.0934 37.2695 42.9726 37.4829 42.8465 37.6935C42.7204 37.904 42.5892 38.1113 42.4529 38.3154C42.3166 38.5195 42.1754 38.7201 42.0292 38.9173C41.883 39.1144 41.7321 39.3078 41.5765 39.4975C41.4208 39.6872 41.2605 39.873 41.0958 40.0549C40.931 40.2367 40.7618 40.4145 40.5883 40.588C40.4147 40.7614 40.2371 40.9306 40.0552 41.0954C39.8733 41.2603 39.6876 41.4204 39.4979 41.5761C39.3081 41.7318 39.1147 41.8827 38.9176 42.0289C38.7204 42.175 38.5198 42.3162 38.3157 42.4525C38.1117 42.5889 37.9044 42.7201 37.6938 42.8462C37.4833 42.9722 37.2698 43.0931 37.0533 43.2087C36.8368 43.3243 36.6176 43.4346 36.3958 43.5394C36.1739 43.6442 35.9496 43.7435 35.7228 43.8373C35.496 43.9311 35.2671 44.0193 35.036 44.1019C34.8049 44.1844 34.5718 44.2613 34.337 44.3324C34.1021 44.4035 33.8656 44.4688 33.6275 44.5283C33.3894 44.5877 33.15 44.6413 32.9093 44.689C32.6686 44.7367 32.4268 44.7785 32.184 44.8143C31.9412 44.8502 31.6978 44.88 31.4535 44.9038C31.2093 44.9277 30.9646 44.9456 30.7195 44.9574C30.4743 44.9692 30.229 44.975 29.9837 44.9748C29.7383 44.975 29.493 44.9692 29.2478 44.9574C29.0027 44.9456 28.758 44.9277 28.5138 44.9038C28.2696 44.88 28.026 44.8501 27.7833 44.8143C27.5405 44.7785 27.2987 44.7367 27.058 44.689C26.8172 44.6413 26.5778 44.5877 26.3398 44.5283C26.1016 44.4688 25.8652 44.4035 25.6303 44.3324C25.3954 44.2613 25.1624 44.1844 24.9313 44.1019C24.7002 44.0193 24.4713 43.9311 24.2445 43.8373C24.0178 43.7435 23.7934 43.6442 23.5715 43.5394C23.3496 43.4346 23.1304 43.3243 22.914 43.2087C22.6975 43.0931 22.484 42.9722 22.2735 42.8461C22.0629 42.72 21.8556 42.5888 21.6516 42.4525C21.4475 42.3162 21.2469 42.175 21.0497 42.0288C20.8526 41.8827 20.6592 41.7318 20.4694 41.5761C20.2797 41.4204 20.0939 41.2603 19.9121 41.0954C19.7302 40.9306 19.5526 40.7614 19.3791 40.588C19.2055 40.4144 19.0363 40.2367 18.8715 40.0549C18.7068 39.873 18.5465 39.6872 18.3909 39.4975C18.2352 39.3078 18.0843 39.1144 17.9381 38.9172C17.792 38.72 17.6507 38.5195 17.5144 38.3154C17.3781 38.1113 17.247 37.904 17.1209 37.6935C16.9948 37.4829 16.8739 37.2694 16.7583 37.053C16.6427 36.8365 16.5325 36.6173 16.4276 36.3955C16.3228 36.1736 16.2234 35.9492 16.1296 35.7224C16.0358 35.4957 15.9476 35.2668 15.8651 35.0356C15.7825 34.8045 15.7057 34.5715 15.6346 34.3366C15.5635 34.1017 15.4982 33.8653 15.4387 33.6272C15.3792 33.3891 15.3257 33.1497 15.278 32.9089C15.2303 32.6682 15.1885 32.4265 15.1526 32.1837C15.1168 31.9409 15.087 31.6974 15.0632 31.4531C15.0393 31.2089 15.0214 30.9642 15.0096 30.7191C14.9978 30.474 14.992 30.2287 14.9922 29.9833Z"   fill="#1ABDB2" >
</path>
</svg>
