<svg xmlns="http://www.w3.org/2000/svg" xmlns:xlink="http://www.w3.org/1999/xlink" width="60" height="60" viewBox="0 0 60 60" fill="none">
<g  clip-path="url(#clip-path-12_1245)">
<path d="M42.156 31.6847L28.3189 17.8477L3.30738 40.7293C-1.10246 45.1392 -1.10246 52.2864 3.30738 56.6925C7.71721 61.1026 14.8645 61.1026 19.2705 56.6925L42.156 31.6847ZM7.15102 52.8526C4.94607 50.6477 4.94607 47.0741 7.15102 44.8692C9.3559 42.6643 12.9295 42.6643 15.1345 44.8692C17.3394 47.0741 17.3394 50.6477 15.1345 52.8526C12.9295 55.0538 9.3559 55.0538 7.15102 52.8526Z"   fill="#3979F0" >
</path>
<path d="M58.3817 9.69182L54.0243 14.0492C51.8194 16.2541 48.2458 16.2541 46.0408 14.0492C43.8359 11.8443 43.8359 8.27062 46.0408 6.06568L50.4282 1.67837C44.1247 -1.36277 36.3287 -0.271556 31.0977 4.95575C24.4867 11.5668 24.4867 22.2876 31.0977 28.9024C37.7087 35.5134 48.4295 35.5134 55.0443 28.9024C60.2414 23.7088 61.3518 15.9766 58.3817 9.69182Z"   fill="#3979F0" >
</path>
</g>
<defs>
<clipPath id="clip-path-12_1245">
<path d="M0 60L60 60L60 0L0 0L0 60Z" fill="white"/>
</clipPath>
</defs>
</svg>
