<?xml version="1.0" encoding="utf-8"?>
<!-- Generator: Adobe Illustrator 23.1.0, SVG Export Plug-In . SVG Version: 6.00 Build 0)  -->
<svg version="1.1" id="图层_1" xmlns="http://www.w3.org/2000/svg" xmlns:xlink="http://www.w3.org/1999/xlink" x="0px" y="0px"
	 viewBox="0 0 80 80" style="enable-background:new 0 0 80 80;" xml:space="preserve">
<style type="text/css">
	.st0{fill:#FF9552;}
</style>
<g>
	<path class="st0" d="M74.8,72.3c-0.7-0.7-1.9-1.6-4.1-1.6c-20.3,0-38.1,0-58.2,0c-1,0-2,0-3.1,0c-0.6,0-1.1,0.1-1.7,0.2
		c-2.1,0.5-3.6,2.4-3.5,4.7c0.1,2.3,1.7,4,4,4.3c0.5,0.1,0.9,0.1,1.3,0.1h34.1h26.7c0.5,0,0.9,0,1.5-0.1c2.1-0.3,3.6-1.8,3.8-4
		C76,74.4,75.6,73.2,74.8,72.3z"/>
	<path class="st0" d="M4.9,62.3c0,1.3,0.2,2.2,0.8,2.7c0.5,0.6,1.4,0.8,2.8,0.8h47c1.7-0.1,3.5-0.1,5.3-0.1c0,0,0,0,0.1-0.1
		c3.8,0,7.7,0,11.5,0c1.9,0,3-0.9,3-2.7c0-4.8,0.1-9.5-0.1-14.2c-0.1-3.8-3.4-7.2-7.2-7.2c-2.8-0.1-5.6-0.1-8.3-0.1
		c-2.8,0-5.6,0-8.3,0h-1.3c0,0,0,0,0,0c0-0.3,0-0.5,0.1-0.6c0.5-3.1,1.9-5.8,4-8.1c6.4-7.2,6.9-16.9,1.2-24.4
		c-0.3-0.4-0.6-0.8-1-1.2c-6.6-7.5-18-8.7-25.9-2.4c-4.6,3.7-7.1,9.1-7.1,14.6c-0.1,4.3,1.2,8.6,4.1,12.1c1.3,1.6,2.4,3.3,3.4,5
		c0.9,1.5,1.5,3.1,1.6,5h-1.4c-5.6,0-11.1-0.1-16.7,0.1c-1.6,0.1-3.2,0.7-4.4,1.8c-1.5,1.3-2.6,3.2-2.7,5.2c0,0.1,0,0.2,0,0.3
		c-0.1,2.3-0.1,4.6-0.1,6.8C4.9,57.7,4.9,60,4.9,62.3z"/>
</g>
</svg>
