<?xml version="1.0" encoding="utf-8"?>
<!-- Generator: Adobe Illustrator 23.0.2, SVG Export Plug-In . SVG Version: 6.00 Build 0)  -->
<svg version="1.1" id="图层_1" xmlns="http://www.w3.org/2000/svg" xmlns:xlink="http://www.w3.org/1999/xlink" x="0px" y="0px"
	 viewBox="0 0 512 512" style="enable-background:new 0 0 512 512;" xml:space="preserve">
<style type="text/css">
	.st0{fill:#D22419;}
	.st1{fill:#CA1A1D;}
	.st2{fill:none;}
	.st3{fill:#B81C22;}
	.st4{fill:#AE1E24;}
	.st5{fill:#FFFFFF;}
</style>
<g>
	<path class="st0" d="M409.6,0C477.9,0,512,34.1,512,102.4v307.2c0,68.3-34.1,102.4-102.4,102.4H102.4C34.1,512,0,477.8,0,409.6
		V102.4C0,34.1,34.1,0,102.4,0H409.6L409.6,0z"/>
</g>
<g>
	<path class="st1" d="M409.6,0.1H267.2C143,30.3,42.5,121.3,0.1,241.8v167.8C0.1,466.2,45.9,512,102.5,512h307.2
		c56.5,0,102.4-45.8,102.4-102.4V102.5C512,45.9,466.2,0.1,409.6,0.1L409.6,0.1z"/>
</g>
<g>
	<rect x="0.1" y="1.3" class="st2" width="512.7" height="513"/>
</g>
<g>
	<path class="st3" d="M409.5,0h-1.9c-109,23.6-202,94.3-254,193.1S96,408.7,138.2,512h271.3c56.5,0,102.3-45.8,102.3-102.4V102.4
		C511.8,45.8,466,0,409.5,0L409.5,0z"/>
</g>
<g>
	<path class="st4" d="M248.9,360.5c-0.1,52.1,10.7,103.6,31.6,151.3h129.2c56.5,0,102.3-45.8,102.3-102.3V102.6
		c0-33.7-16.6-65.3-44.5-84.4C334.2,80,248.9,213.6,248.9,360.5L248.9,360.5z"/>
</g>
<g>
	<rect x="47.6" y="227.9" class="st5" width="38.7" height="103.8"/>
	<path class="st5" d="M86,197.5L86,197.5c0,10.7-8.7,19.3-19.3,19.3l0,0c-10.7,0-19.3-8.7-19.3-19.3l0,0c0-10.7,8.7-19.3,19.3-19.3
		l0,0C77.4,178.1,86,186.8,86,197.5z"/>
	<path class="st5" d="M179.8,181.1v30.1h-23.3v120.4h-39.2V211.2H94.3v-30.1H179.8z"/>
	<path class="st5" d="M273,181.1v150.5h-37.6v-9c-3.6,3.7-7.4,6.5-11.3,8.4c-3.9,1.9-8.1,2.8-12.4,2.8c-5.8,0-10.8-1.5-15.1-4.6
		c-4.3-3.1-7-6.6-8.2-10.7c-1.2-4-1.8-10.6-1.8-19.7v-57.8c0-9.4,0.6-16.2,1.8-20.2c1.2-3.9,4-7.5,8.3-10.5s9.5-4.5,15.5-4.5
		c4.7,0,8.9,0.8,12.8,2.5c3.8,1.7,7.4,4.2,10.6,7.6v-35L273,181.1L273,181.1z M235.5,239.4c0-4.5-0.4-7.6-1.1-9.1
		c-0.7-1.6-2.3-2.3-4.6-2.3s-3.7,0.7-4.5,2.1c-0.7,1.4-1.1,4.5-1.1,9.3v60.5c0,5,0.4,8.3,1.1,9.9c0.7,1.6,2.1,2.3,4.3,2.3
		c2.4,0,4-0.8,4.9-2.6c0.8-1.8,1.2-6.1,1.2-13v-57.1H235.5z"/>
	<path class="st5" d="M371.5,251.6v30.2c0,11.1-0.6,19.3-1.7,24.4s-3.5,10-7.2,14.5c-3.6,4.5-8.3,7.9-14.1,9.9
		c-5.7,2.1-12.3,3.2-19.7,3.2c-8.3,0-15.3-0.9-21.1-2.7c-5.8-1.9-10.3-4.6-13.5-8.3c-3.2-3.6-5.5-8.1-6.8-13.4
		c-1.3-5.2-2.1-13.1-2.1-23.6v-31.6c0-11.5,1.2-20.4,3.7-26.8c2.5-6.4,6.9-11.6,13.4-15.5s14.7-5.9,24.8-5.9
		c8.4,0,15.7,1.2,21.7,3.7c6.1,2.5,10.7,5.8,14,9.8c3.3,4,5.5,8.2,6.7,12.4C370.9,236.4,371.5,242.8,371.5,251.6z M334,242.3
		c0-6.4-0.4-10.3-1-12c-0.7-1.7-2.1-2.4-4.4-2.4c-2.2,0-3.7,0.8-4.5,2.4c-0.7,1.7-1.1,5.6-1.1,12V298c0,5.8,0.4,9.6,1.1,11.4
		c0.7,1.8,2.2,2.6,4.4,2.6c2.2,0,3.7-0.8,4.4-2.4c0.7-1.6,1-5,1-10.4L334,242.3L334,242.3z"/>
	<path class="st5" d="M460.6,247.7h-33.3V241c0-5.7-0.3-9.3-0.9-10.8c-0.7-1.5-2.2-2.2-4.9-2.2c-2.1,0-3.6,0.7-4.8,2.1
		c-1,1.4-1.6,3.5-1.6,6.3c0,3.7,0.3,6.5,0.7,8.3c0.6,1.8,2.1,3.7,4.8,5.8c2.6,2.2,8,5.1,16.3,9.2c10.9,5.3,18,10.4,21.5,15
		c3.4,4.7,5.1,11.6,5.1,20.6c0,10-1.3,17.6-3.9,22.7c-2.6,5.1-6.9,9.1-13.1,11.8c-6.2,2.7-13.5,4.1-22.1,4.1
		c-9.5,0-17.7-1.5-24.5-4.5s-11.5-7-14-12.1s-3.8-12.8-3.8-23.1v-6h33.3v7.9c0,6.6,0.4,10.9,1.2,12.9c0.8,2,2.5,3,5,3
		c2.6,0,4.5-0.7,5.6-2c1-1.3,1.6-4.1,1.6-8.4c0-5.9-0.7-9.5-2.1-11s-8.7-5.9-21.9-13.2c-11-6.2-17.8-11.8-20.2-16.9
		c-2.4-5-3.6-11-3.6-17.9c0-9.8,1.3-17.1,3.9-21.8c2.6-4.7,7-8.3,13.3-10.8c6.3-2.5,13.5-3.8,21.7-3.8c8.2,0,15.1,1,20.8,3.1
		c5.7,2.1,10.1,4.9,13.2,8.2c3.1,3.4,5,6.5,5.6,9.4s0.9,7.5,0.9,13.6L460.6,247.7L460.6,247.7z"/>
</g>
<path class="st5" d="M464.2,208.1c-14.4,0-26.1-11.7-26.1-26.1s11.7-26.1,26.1-26.1s26.1,11.7,26.1,26.1
	C490.3,196.4,478.6,208.1,464.2,208.1z M464.2,159.9c-12.2,0-22.1,9.9-22.1,22.1s9.9,22.1,22.1,22.1s22.1-9.9,22.1-22.1
	C486.3,169.8,476.4,159.9,464.2,159.9z"/>
<g>
	<path class="st5" d="M451.8,170.1h5.2v24.6h-5.2V170.1z M454,181h12.6c1,0,1.8-0.2,2.6-0.5c0.8-0.3,1.4-0.8,1.8-1.4
		c0.4-0.6,0.7-1.2,0.7-2s-0.2-1.4-0.7-2c-0.4-0.6-1-1-1.8-1.4c-0.8-0.3-1.7-0.5-2.7-0.5H454v-3.3h12.5c2.1,0,4,0.3,5.6,0.9
		c1.6,0.6,2.9,1.4,3.8,2.5s1.4,2.3,1.4,3.7s-0.5,2.7-1.4,3.7c-0.9,1.1-2.1,1.9-3.8,2.5c-1.6,0.6-3.5,0.9-5.6,0.9H454L454,181
		L454,181z M464.1,183.5l5.2-0.8l9.5,11.9h-6.2L464.1,183.5z"/>
</g>
</svg>
