<?xml version="1.0" encoding="utf-8"?>
<!-- Generator: Adobe Illustrator 23.0.2, SVG Export Plug-In . SVG Version: 6.00 Build 0)  -->
<svg version="1.1" id="图层_1" xmlns="http://www.w3.org/2000/svg" xmlns:xlink="http://www.w3.org/1999/xlink" x="0px" y="0px"
	 viewBox="0 0 512 512" style="enable-background:new 0 0 512 512;" xml:space="preserve">
<style type="text/css">
	.st0{fill:#D22419;}
	.st1{fill:#CA1A1D;}
	.st2{fill:none;}
	.st3{fill:#B81C22;}
	.st4{fill:#AE1E24;}
	.st5{fill:#F2A4A4;}
	.st6{fill:#FFFFFF;}
</style>
<g>
	<path class="st0" d="M409.6,0C477.9,0,512,34.1,512,102.4v307.2c0,68.3-34.1,102.4-102.4,102.4H102.4C34.1,512,0,477.8,0,409.6
		l0-307.2C0,34.1,34.1,0,102.4,0L409.6,0L409.6,0z M409.6,0"/>
</g>
<g>
	<path class="st1" d="M409.6,0.1H267.2C143,30.3,42.5,121.3,0.1,241.8v167.8c0,56.6,45.8,102.4,102.4,102.4h307.2
		c56.5,0,102.4-45.8,102.4-102.4V102.5C512,45.9,466.2,0.1,409.6,0.1L409.6,0.1z M409.6,0.1"/>
</g>
<g>
	<rect x="0.1" y="1.3" class="st2" width="512.7" height="513"/>
</g>
<g>
	<path class="st3" d="M409.5,0h-1.9c-109,23.6-202,94.3-254,193.1c-52,98.8-57.6,215.6-15.4,318.9h271.3
		c56.5,0,102.3-45.8,102.3-102.4V102.4C511.8,45.8,466,0,409.5,0L409.5,0z M409.5,0"/>
</g>
<g>
	<path class="st4" d="M248.9,360.5c-0.1,52.1,10.7,103.6,31.6,151.3h129.2c56.5,0,102.3-45.8,102.3-102.3V102.6
		c0-33.7-16.6-65.3-44.5-84.4C334.2,80,248.9,213.6,248.9,360.5L248.9,360.5z M248.9,360.5"/>
</g>
<g>
	<path class="st5" d="M412.3,118.7L412.3,118.7c0,27.1-22.4,49.1-50.1,49.1h0c-27.7,0-50.1-22-50.1-49.1v0
		c0-27.1,22.4-49.1,50.1-49.1h0C389.9,69.6,412.3,91.6,412.3,118.7z"/>
</g>
<g>
	<path class="st6" d="M407.5,118.7L407.5,118.7c0,27.1-22.4,49.1-50.1,49.1h0c-27.7,0-50.1-22-50.1-49.1v0
		c0-27.1,22.4-49.1,50.1-49.1h0C385.1,69.6,407.5,91.6,407.5,118.7z"/>
</g>
<path class="st6" d="M403.9,193.1L403.9,193.1c-4.9-4.4-11.4-6.9-18.2-6.9h-52.5c-14.6,0-26.4,11.3-26.5,25.1l-0.4,138.1l-70.5-63.8
	c-6.5-5.9-15.6-8.2-24.3-6.2l-92.5,20.8c-9,2-16.3,8.5-19.1,16.8l-31,92.6l-58.7-68.5c-1.9-3.1-4.5-5.8-7.8-7.7
	c-0.8-0.5-1.6-0.9-2.4-1.2v102c6.4,46.4,33.2,72.3,80.4,77.9h74.3l35.1-133.6l95.9,85.1c6,5.4,14.3,7.7,22.4,6.4l83.8,0.4l1.5-0.3
	c12.3-2.8,15.3-17.8,16.6-24.2c1.4-7.2,2.2-15.3,2.2-19.2l0.1-215.5C412.2,204.4,409.3,197.9,403.9,193.1z"/>
</svg>
