<svg xmlns="http://www.w3.org/2000/svg" xmlns:xlink="http://www.w3.org/1999/xlink" width="50.2857666015625" height="49.82421875" viewBox="0 0 50.2857666015625 49.82421875" fill="none">
<path d="M1.01719 15.6232C0.997687 15.6362 0.978419 15.6495 0.959375 15.6631C0.940331 15.6766 0.9215 15.6904 0.902875 15.7046C0.88425 15.7188 0.865831 15.7332 0.847625 15.7479C0.829456 15.7626 0.8115 15.7776 0.79375 15.7929C0.776044 15.8082 0.758562 15.8237 0.741313 15.8396C0.724063 15.8554 0.707062 15.8714 0.690312 15.8877C0.673562 15.9041 0.657062 15.9207 0.640812 15.9375C0.624562 15.9543 0.608584 15.9714 0.592875 15.9887C0.577125 16.0061 0.561667 16.0236 0.5465 16.0414C0.531334 16.0592 0.516437 16.0773 0.501812 16.0956C0.487188 16.1138 0.472834 16.1323 0.45875 16.151C0.444708 16.1697 0.430937 16.1886 0.417437 16.2077C0.403979 16.2269 0.390813 16.2462 0.377937 16.2657C0.365021 16.2852 0.352437 16.3049 0.340187 16.3249C0.327896 16.3448 0.315917 16.3649 0.30425 16.3852C0.292584 16.4055 0.281229 16.4259 0.270188 16.4466C0.259146 16.4672 0.248438 16.488 0.238063 16.5089C0.227646 16.5299 0.217562 16.551 0.207812 16.5723C0.198063 16.5936 0.188646 16.6149 0.179562 16.6365C0.170479 16.6581 0.161729 16.6798 0.153312 16.7016C0.144896 16.7234 0.136812 16.7454 0.129062 16.7674C0.121312 16.7895 0.113896 16.8117 0.106812 16.834C0.0997712 16.8563 0.0930419 16.8787 0.086625 16.9012C0.08025 16.9237 0.0742294 16.9464 0.0685625 16.9691C0.0628544 16.9917 0.0575209 17.0146 0.0525627 17.0374C0.0475626 17.0602 0.0429167 17.0832 0.0386252 17.1062C0.0343337 17.1292 0.0304169 17.1522 0.026875 17.1754C0.0232921 17.1985 0.0200629 17.2217 0.0171876 17.2449C0.0143127 17.2681 0.0118127 17.2913 0.00968787 17.3146C0.00752113 17.3379 0.0057292 17.3613 0.00431251 17.3846C0.00285435 17.408 0.00177097 17.4314 0.00106287 17.4547C0.00035429 17.4781 0 17.5015 0 17.5249L0 47.5386C0 47.5761 0.000916956 47.6134 0.00275039 47.6507C0.00458336 47.6881 0.00733375 47.7254 0.0110002 47.7627C0.0146671 47.7999 0.0192504 47.837 0.0247502 47.874C0.0302501 47.911 0.0366459 47.9479 0.0439377 47.9846C0.0512295 48.0212 0.0594167 48.0577 0.0685 48.094C0.0775831 48.1303 0.0875625 48.1663 0.0984375 48.2021C0.109312 48.2379 0.121042 48.2734 0.133625 48.3086C0.14625 48.3439 0.159709 48.3787 0.174 48.4133C0.188334 48.4479 0.2035 48.4821 0.2195 48.5159C0.235458 48.5497 0.252271 48.5831 0.269937 48.6161C0.287563 48.6491 0.305979 48.6816 0.325187 48.7137C0.344437 48.7458 0.364459 48.7774 0.38525 48.8085C0.406 48.8396 0.427521 48.8701 0.449813 48.9002C0.472104 48.9302 0.495125 48.9597 0.518875 48.9887C0.542584 49.0176 0.567001 49.0459 0.592126 49.0736C0.61725 49.1013 0.643044 49.1284 0.6695 49.1549C0.695956 49.1813 0.723044 49.2071 0.75075 49.2323C0.778456 49.2574 0.806769 49.2818 0.835687 49.3055C0.864606 49.3293 0.894081 49.3522 0.924125 49.3745C0.954169 49.3968 0.98475 49.4183 1.01587 49.4391C1.04696 49.4599 1.07854 49.4799 1.11062 49.4991C1.14271 49.5184 1.17525 49.5368 1.20825 49.5544C1.24125 49.5721 1.27464 49.5889 1.30844 49.6049C1.34227 49.6209 1.37646 49.636 1.411 49.6503C1.44558 49.6646 1.48048 49.6781 1.51569 49.6907C1.55089 49.7033 1.58642 49.7151 1.62225 49.7259C1.65804 49.7367 1.69408 49.7467 1.73037 49.7558C1.76662 49.7649 1.80311 49.7731 1.83981 49.7804C1.87648 49.7878 1.91333 49.7941 1.95037 49.7996C1.98738 49.8051 2.02448 49.8096 2.06169 49.8133C2.09894 49.817 2.13623 49.8197 2.17356 49.8216C2.21094 49.8234 2.24833 49.8243 2.28575 49.8243L48 49.8243C48.0374 49.8243 48.0748 49.8234 48.1122 49.8216C48.1495 49.8197 48.1868 49.817 48.2241 49.8133C48.2612 49.8096 48.2984 49.8051 48.3354 49.7996C48.3724 49.7941 48.4092 49.7878 48.4459 49.7804C48.4826 49.7731 48.5191 49.7649 48.5554 49.7558C48.5917 49.7467 48.6277 49.7367 48.6635 49.7259C48.6993 49.7151 48.7348 49.7033 48.7701 49.6907C48.8052 49.6781 48.8401 49.6646 48.8747 49.6503C48.9092 49.636 48.9434 49.6209 48.9772 49.6049C49.0111 49.5889 49.0445 49.5721 49.0775 49.5544C49.1105 49.5368 49.1431 49.5184 49.1751 49.4991C49.2072 49.4799 49.2388 49.4599 49.2699 49.4391C49.301 49.4183 49.3316 49.3968 49.3616 49.3745C49.3917 49.3522 49.4211 49.3293 49.4501 49.3055C49.479 49.2818 49.5073 49.2574 49.535 49.2323C49.5627 49.2071 49.5898 49.1813 49.6162 49.1549C49.6427 49.1284 49.6685 49.1013 49.6936 49.0736C49.7188 49.0459 49.7432 49.0176 49.7669 48.9887C49.7906 48.9597 49.8136 48.9302 49.8359 48.9002C49.8582 48.8701 49.8797 48.8396 49.9005 48.8085C49.9213 48.7774 49.9413 48.7458 49.9606 48.7137C49.9797 48.6816 49.9982 48.6491 50.0158 48.6161C50.0335 48.5831 50.0503 48.5497 50.0662 48.5159C50.0822 48.4821 50.0974 48.4479 50.1117 48.4133C50.1261 48.3787 50.1395 48.3439 50.1521 48.3086C50.1647 48.2734 50.1764 48.2379 50.1873 48.2021C50.1982 48.1663 50.2082 48.1303 50.2172 48.094C50.2263 48.0577 50.2345 48.0212 50.2418 47.9846C50.2491 47.9479 50.2555 47.911 50.261 47.874C50.2665 47.837 50.2711 47.7999 50.2747 47.7627C50.2784 47.7254 50.2812 47.6881 50.283 47.6507C50.2848 47.6134 50.2857 47.5761 50.2857 47.5386L50.2857 17.5249C50.2857 17.5015 50.2854 17.4781 50.2847 17.4547C50.2839 17.4313 50.2829 17.4079 50.2814 17.3846C50.28 17.3613 50.2782 17.3379 50.2761 17.3146C50.2739 17.2913 50.2714 17.2681 50.2686 17.2449C50.2657 17.2217 50.2624 17.1985 50.2589 17.1754C50.2553 17.1522 50.2514 17.1292 50.2471 17.1062C50.2428 17.0832 50.2382 17.0602 50.2332 17.0374C50.2282 17.0146 50.2229 16.9917 50.2172 16.9691C50.2115 16.9464 50.2055 16.9237 50.1991 16.9012C50.1927 16.8787 50.186 16.8563 50.1789 16.834C50.1719 16.8117 50.1644 16.7895 50.1567 16.7674C50.1489 16.7454 50.1409 16.7234 50.1324 16.7016C50.124 16.6798 50.1152 16.6581 50.1062 16.6365C50.0971 16.6149 50.0876 16.5936 50.0779 16.5722C50.0682 16.551 50.0581 16.5299 50.0477 16.5089C50.0373 16.488 50.0266 16.4672 50.0156 16.4466C50.0045 16.4259 49.9932 16.4055 49.9815 16.3852C49.9698 16.3649 49.9579 16.3448 49.9456 16.3249C49.9333 16.3049 49.9207 16.2852 49.9078 16.2657C49.8949 16.2462 49.8817 16.2269 49.8683 16.2077C49.8548 16.1886 49.8411 16.1697 49.827 16.151C49.8129 16.1323 49.7986 16.1138 49.7839 16.0956C49.7693 16.0773 49.7544 16.0592 49.7393 16.0414C49.7241 16.0236 49.7086 16.0061 49.6929 15.9887C49.6772 15.9714 49.6612 15.9543 49.6449 15.9375C49.6287 15.9207 49.6122 15.9041 49.5954 15.8877C49.5787 15.8714 49.5617 15.8554 49.5444 15.8396C49.5272 15.8237 49.5097 15.8082 49.492 15.7929C49.4742 15.7776 49.4563 15.7626 49.4381 15.7479C49.4199 15.7332 49.4015 15.7188 49.3829 15.7046C49.3643 15.6904 49.3454 15.6766 49.3264 15.6631C49.3073 15.6495 49.288 15.6362 49.2686 15.6232L26.4114 0.384312C26.3881 0.368771 26.3646 0.353667 26.3407 0.339C26.3168 0.324292 26.2927 0.310041 26.2683 0.29625C26.2439 0.282458 26.2193 0.269125 26.1944 0.25625C26.1695 0.243333 26.1444 0.230896 26.1191 0.218938C26.0938 0.206979 26.0682 0.195479 26.0424 0.184437C26.0167 0.173437 25.9907 0.162896 25.9646 0.152812C25.9384 0.142729 25.9121 0.133146 25.8856 0.124063C25.8591 0.114937 25.8324 0.106312 25.8056 0.0981875C25.7788 0.0900625 25.7518 0.0824375 25.7247 0.0753125C25.6977 0.0681875 25.6704 0.0615626 25.6431 0.0554376C25.6157 0.0492706 25.5883 0.0436249 25.5607 0.0384998C25.5332 0.0333748 25.5056 0.0287709 25.4779 0.0246873C25.4502 0.0205626 25.4224 0.0169582 25.3945 0.013875C25.3667 0.0107917 25.3387 0.00822925 25.3108 0.00618744C25.2829 0.00410414 25.2549 0.00256252 25.2269 0.00156259C25.1989 0.000520706 25.1709 0 25.1429 0C25.1148 0 25.0868 0.000520706 25.0588 0.00156259C25.0308 0.00256252 25.0029 0.00410414 24.9749 0.00618744C24.947 0.00822925 24.9191 0.0107917 24.8912 0.013875C24.8634 0.0169582 24.8356 0.0205626 24.8079 0.0246873C24.7802 0.0287709 24.7526 0.0333748 24.725 0.0384998C24.6974 0.0436249 24.6699 0.0492706 24.6426 0.0554376C24.6153 0.0615626 24.5881 0.0681875 24.561 0.0753125C24.5339 0.0824375 24.5069 0.0900625 24.4801 0.0981875C24.4533 0.106312 24.4266 0.114937 24.4001 0.124063C24.3736 0.133146 24.3473 0.142729 24.3212 0.152812C24.295 0.162896 24.2691 0.173437 24.2433 0.184437C24.2176 0.195479 24.192 0.206979 24.1667 0.218938C24.1414 0.230896 24.1162 0.243333 24.0913 0.25625C24.0664 0.269125 24.0418 0.282458 24.0174 0.29625C23.9931 0.310041 23.9689 0.324292 23.9451 0.339C23.9212 0.353667 23.8976 0.368771 23.8743 0.384312L1.01719 15.6232ZM36.5714 36.1123L36.5714 40.6838L13.7143 40.6838L13.7143 36.1123L36.5714 36.1123Z"   fill="#3979F0" >
</path>
</svg>
