<svg xmlns="http://www.w3.org/2000/svg" xmlns:xlink="http://www.w3.org/1999/xlink" width="48" height="48" viewBox="0 0 48 48" fill="none">
<path d="M42.6667 32C42.7539 32 42.8412 32.0021 42.9284 32.0064C43.0156 32.0107 43.1026 32.0171 43.1894 32.0257C43.2763 32.0343 43.3629 32.0449 43.4492 32.0578C43.5356 32.0706 43.6216 32.0854 43.7071 32.1025C43.7928 32.1195 43.8779 32.1386 43.9626 32.1598C44.0473 32.181 44.1313 32.2043 44.2149 32.2296C44.2984 32.2549 44.3813 32.2823 44.4634 32.3118C44.5456 32.3412 44.627 32.3726 44.7076 32.406C44.7883 32.4394 44.8681 32.4748 44.9469 32.5121C45.0259 32.5494 45.1038 32.5886 45.1808 32.6297C45.2578 32.6709 45.3337 32.7139 45.4086 32.7588C45.4834 32.8036 45.5571 32.8503 45.6297 32.8988C45.7023 32.9473 45.7736 32.9976 45.8438 33.0496C45.9138 33.1016 45.9826 33.1553 46.0501 33.2106C46.1176 33.266 46.1836 33.323 46.2483 33.3816C46.313 33.4402 46.3762 33.5004 46.4379 33.5621C46.4996 33.6238 46.5598 33.687 46.6184 33.7517C46.677 33.8164 46.734 33.8824 46.7894 33.9499C46.8447 34.0174 46.8984 34.0862 46.9504 34.1562C47.0024 34.2264 47.0527 34.2978 47.1012 34.3703C47.1496 34.4429 47.1963 34.5166 47.2412 34.5914C47.2861 34.6663 47.3291 34.7423 47.3703 34.8192C47.4114 34.8962 47.4506 34.9741 47.4879 35.0531C47.5252 35.1319 47.5606 35.2117 47.594 35.2924C47.6274 35.373 47.6588 35.4544 47.6883 35.5366C47.7176 35.6188 47.745 35.7016 47.7704 35.7851C47.7957 35.8687 47.819 35.9528 47.8402 36.0374C47.8614 36.1221 47.8805 36.2073 47.8975 36.2929C47.9146 36.3784 47.9294 36.4644 47.9422 36.5508C47.9551 36.6371 47.9658 36.7238 47.9743 36.8106C47.9829 36.8974 47.9893 36.9844 47.9936 37.0716C47.9979 37.1588 48 37.2461 48 37.3333L48 42.6667C48 42.7539 47.9979 42.8412 47.9936 42.9284C47.9893 43.0156 47.9829 43.1026 47.9743 43.1894C47.9658 43.2763 47.9551 43.3629 47.9422 43.4492C47.9294 43.5356 47.9146 43.6216 47.8975 43.7071C47.8805 43.7928 47.8614 43.8779 47.8402 43.9626C47.819 44.0473 47.7957 44.1313 47.7704 44.2149C47.745 44.2984 47.7176 44.3813 47.6883 44.4634C47.6588 44.5456 47.6274 44.627 47.594 44.7076C47.5606 44.7883 47.5252 44.8681 47.4879 44.9469C47.4506 45.0259 47.4114 45.1038 47.3703 45.1808C47.3291 45.2578 47.2861 45.3337 47.2412 45.4086C47.1963 45.4834 47.1496 45.5571 47.1012 45.6297C47.0527 45.7023 47.0024 45.7736 46.9504 45.8438C46.8984 45.9138 46.8447 45.9826 46.7894 46.0501C46.734 46.1176 46.677 46.1836 46.6184 46.2483C46.5598 46.313 46.4996 46.3762 46.4379 46.4379C46.3762 46.4996 46.313 46.5598 46.2483 46.6184C46.1836 46.677 46.1176 46.734 46.0501 46.7894C45.9826 46.8447 45.9138 46.8984 45.8438 46.9504C45.7736 47.0024 45.7023 47.0527 45.6297 47.1012C45.5571 47.1496 45.4834 47.1963 45.4086 47.2412C45.3337 47.2861 45.2578 47.3291 45.1808 47.3703C45.1038 47.4114 45.0259 47.4506 44.9469 47.4879C44.8681 47.5252 44.7883 47.5606 44.7076 47.594C44.627 47.6274 44.5456 47.6588 44.4634 47.6883C44.3813 47.7176 44.2984 47.745 44.2149 47.7704C44.1313 47.7957 44.0473 47.819 43.9626 47.8402C43.8779 47.8614 43.7928 47.8805 43.7071 47.8975C43.6216 47.9146 43.5356 47.9294 43.4492 47.9422C43.3629 47.9551 43.2763 47.9658 43.1894 47.9743C43.1026 47.9829 43.0156 47.9893 42.9284 47.9936C42.8412 47.9979 42.7539 48 42.6667 48L32 48C31.9127 48 31.8255 47.9979 31.7383 47.9936C31.6511 47.9893 31.5641 47.9829 31.4773 47.9743C31.3904 47.9658 31.3038 47.9551 31.2174 47.9422C31.1311 47.9294 31.0451 47.9146 30.9595 47.8975C30.8739 47.8805 30.7888 47.8614 30.7041 47.8402C30.6194 47.819 30.5354 47.7957 30.4518 47.7704C30.3682 47.745 30.2854 47.7176 30.2033 47.6883C30.1211 47.6588 30.0397 47.6274 29.959 47.594C29.8784 47.5606 29.7986 47.5252 29.7197 47.4879C29.6408 47.4506 29.5629 47.4114 29.4859 47.3703C29.4089 47.3291 29.333 47.2861 29.2581 47.2412C29.1833 47.1963 29.1095 47.1496 29.0369 47.1012C28.9644 47.0527 28.893 47.0024 28.8229 46.9504C28.7528 46.8984 28.684 46.8447 28.6166 46.7894C28.5491 46.734 28.4831 46.677 28.4184 46.6184C28.3537 46.5598 28.2904 46.4996 28.2288 46.4379C28.1671 46.3762 28.1069 46.313 28.0483 46.2483C27.9896 46.1836 27.9326 46.1176 27.8773 46.0501C27.8219 45.9826 27.7682 45.9138 27.7163 45.8438C27.6643 45.7736 27.614 45.7023 27.5655 45.6297C27.517 45.5571 27.4703 45.4834 27.4254 45.4086C27.3806 45.3337 27.3376 45.2578 27.2964 45.1808C27.2553 45.1038 27.216 45.0259 27.1787 44.9469C27.1414 44.8681 27.1061 44.7883 27.0726 44.7076C27.0393 44.627 27.0079 44.5456 26.9784 44.4634C26.949 44.3812 26.9216 44.2984 26.8963 44.2149C26.871 44.1313 26.8477 44.0473 26.8265 43.9626C26.8053 43.8779 26.7862 43.7928 26.7691 43.7071C26.7521 43.6216 26.7372 43.5356 26.7244 43.4492C26.7116 43.3629 26.7009 43.2763 26.6924 43.1894C26.6838 43.1026 26.6774 43.0156 26.6731 42.9284C26.6688 42.8412 26.6667 42.7539 26.6667 42.6667L26.6667 37.3333C26.6667 37.2461 26.6688 37.1588 26.6731 37.0716C26.6774 36.9844 26.6838 36.8974 26.6924 36.8106C26.7009 36.7238 26.7116 36.6371 26.7244 36.5508C26.7372 36.4644 26.7521 36.3784 26.7691 36.2929C26.7862 36.2073 26.8053 36.1221 26.8265 36.0374C26.8477 35.9528 26.871 35.8687 26.8963 35.7851C26.9216 35.7016 26.949 35.6188 26.9784 35.5366C27.0079 35.4544 27.0393 35.373 27.0726 35.2924C27.1061 35.2117 27.1414 35.1319 27.1788 35.0531C27.2161 34.9741 27.2553 34.8962 27.2964 34.8192C27.3376 34.7423 27.3806 34.6663 27.4254 34.5914C27.4703 34.5166 27.517 34.4429 27.5655 34.3703C27.614 34.2978 27.6643 34.2264 27.7163 34.1562C27.7683 34.0862 27.8219 34.0174 27.8773 33.9499C27.9326 33.8824 27.9896 33.8164 28.0483 33.7517C28.1069 33.687 28.1671 33.6238 28.2288 33.5621C28.2904 33.5004 28.3537 33.4402 28.4184 33.3816C28.4831 33.323 28.5491 33.266 28.6166 33.2106C28.684 33.1553 28.7528 33.1016 28.8229 33.0496C28.8931 32.9976 28.9644 32.9473 29.0369 32.8988C29.1095 32.8503 29.1833 32.8036 29.2581 32.7588C29.333 32.7139 29.4089 32.6709 29.4859 32.6297C29.5629 32.5886 29.6408 32.5494 29.7197 32.5121C29.7986 32.4748 29.8784 32.4394 29.959 32.406C30.0397 32.3726 30.1211 32.3412 30.2033 32.3118C30.2854 32.2823 30.3682 32.2549 30.4518 32.2296C30.5354 32.2043 30.6194 32.181 30.7041 32.1598C30.7888 32.1386 30.8739 32.1195 30.9595 32.1025C31.0451 32.0854 31.1311 32.0706 31.2174 32.0578C31.3038 32.0449 31.3904 32.0343 31.4773 32.0257C31.5641 32.0171 31.6511 32.0107 31.7383 32.0064C31.8255 32.0021 31.9127 32 32 32L42.6667 32ZM16 21.3333C16.0873 21.3333 16.1745 21.3354 16.2617 21.3398C16.3489 21.3441 16.4359 21.3504 16.5228 21.359C16.6096 21.3676 16.6963 21.3783 16.7826 21.3911C16.8689 21.4039 16.9549 21.4188 17.0405 21.4358C17.1261 21.4529 17.2112 21.472 17.2959 21.4932C17.3806 21.5144 17.4646 21.5377 17.5482 21.563C17.6318 21.5883 17.7146 21.6157 17.7968 21.6451C17.8789 21.6745 17.9603 21.7059 18.041 21.7393C18.1216 21.7728 18.2014 21.8081 18.2803 21.8454C18.3592 21.8827 18.4371 21.9219 18.5141 21.9631C18.5911 22.0042 18.667 22.0473 18.7419 22.0921C18.8167 22.137 18.8905 22.1837 18.9631 22.2322C19.0356 22.2806 19.1069 22.3309 19.1771 22.3829C19.2472 22.4349 19.316 22.4886 19.3834 22.5439C19.4509 22.5993 19.5169 22.6563 19.5816 22.7149C19.6463 22.7736 19.7096 22.8337 19.7712 22.8954C19.8329 22.9571 19.8931 23.0203 19.9517 23.085C20.0104 23.1497 20.0674 23.2157 20.1228 23.2833C20.1781 23.3507 20.2318 23.4195 20.2838 23.4896C20.3358 23.5597 20.386 23.6311 20.4345 23.7036C20.483 23.7762 20.5297 23.8499 20.5746 23.9248C20.6194 23.9996 20.6624 24.0756 20.7036 24.1526C20.7448 24.2295 20.7839 24.3074 20.8213 24.3864C20.8586 24.4653 20.8939 24.5451 20.9274 24.6257C20.9608 24.7063 20.9921 24.7878 21.0216 24.8699C21.051 24.9521 21.0784 25.0349 21.1037 25.1185C21.129 25.202 21.1523 25.2861 21.1735 25.3708C21.1947 25.4554 21.2138 25.5406 21.2309 25.6262C21.2479 25.7118 21.2628 25.7978 21.2756 25.8841C21.2884 25.9704 21.2991 26.0571 21.3076 26.1439C21.3162 26.2308 21.3226 26.3178 21.3269 26.405C21.3312 26.4922 21.3333 26.5794 21.3333 26.6667L21.3333 42.6667C21.3333 42.7539 21.3312 42.8412 21.3269 42.9284C21.3226 43.0156 21.3162 43.1026 21.3076 43.1894C21.2991 43.2763 21.2884 43.3629 21.2756 43.4492C21.2628 43.5356 21.2479 43.6216 21.2309 43.7071C21.2138 43.7928 21.1947 43.8779 21.1735 43.9626C21.1523 44.0473 21.129 44.1313 21.1037 44.2149C21.0784 44.2984 21.051 44.3813 21.0216 44.4634C20.9921 44.5456 20.9608 44.627 20.9274 44.7076C20.8939 44.7883 20.8586 44.8681 20.8213 44.9469C20.7839 45.0259 20.7448 45.1038 20.7036 45.1808C20.6624 45.2578 20.6194 45.3337 20.5746 45.4086C20.5297 45.4834 20.483 45.5571 20.4345 45.6297C20.386 45.7023 20.3358 45.7736 20.2838 45.8438C20.2318 45.9138 20.1781 45.9826 20.1228 46.0501C20.0674 46.1176 20.0104 46.1836 19.9517 46.2483C19.8931 46.313 19.8329 46.3762 19.7712 46.4379C19.7096 46.4996 19.6463 46.5598 19.5816 46.6184C19.5169 46.677 19.4509 46.734 19.3834 46.7894C19.316 46.8447 19.2472 46.8984 19.1771 46.9504C19.1069 47.0024 19.0356 47.0527 18.9631 47.1012C18.8905 47.1496 18.8167 47.1963 18.7419 47.2412C18.667 47.2861 18.5911 47.3291 18.5141 47.3703C18.4371 47.4114 18.3592 47.4506 18.2803 47.4879C18.2014 47.5252 18.1216 47.5606 18.041 47.594C17.9603 47.6274 17.8789 47.6588 17.7968 47.6883C17.7146 47.7176 17.6318 47.745 17.5482 47.7704C17.4646 47.7957 17.3806 47.819 17.2959 47.8402C17.2112 47.8614 17.1261 47.8805 17.0405 47.8975C16.9549 47.9146 16.8689 47.9294 16.7826 47.9422C16.6963 47.9551 16.6096 47.9658 16.5228 47.9743C16.4359 47.9829 16.3489 47.9893 16.2617 47.9936C16.1745 47.9979 16.0873 48 16 48L5.33331 48C5.24606 48 5.15883 47.9979 5.07163 47.9936C4.98446 47.9893 4.89744 47.9829 4.81056 47.9743C4.72369 47.9658 4.63708 47.9551 4.55075 47.9422C4.46442 47.9294 4.37846 47.9146 4.29288 47.8975C4.20725 47.8805 4.12211 47.8614 4.03744 47.8402C3.95277 47.819 3.86867 47.7957 3.78513 47.7704C3.70163 47.745 3.61877 47.7176 3.53656 47.6883C3.45439 47.6588 3.373 47.6274 3.29238 47.594C3.21171 47.5606 3.13194 47.5252 3.05306 47.4879C2.97414 47.4506 2.89619 47.4114 2.81919 47.3703C2.74223 47.3291 2.66631 47.2861 2.59144 47.2412C2.51656 47.1963 2.44286 47.1496 2.37031 47.1012C2.29773 47.0527 2.22638 47.0024 2.15625 46.9504C2.08617 46.8984 2.01737 46.8447 1.94987 46.7894C1.88242 46.734 1.81636 46.677 1.75169 46.6184C1.68702 46.5598 1.62383 46.4996 1.56213 46.4379C1.50038 46.3762 1.44019 46.313 1.38156 46.2483C1.32298 46.1836 1.266 46.1176 1.21063 46.0501C1.15525 45.9826 1.10156 45.9138 1.04956 45.8438C0.997563 45.7736 0.947313 45.7023 0.898813 45.6297C0.850313 45.5571 0.803625 45.4834 0.75875 45.4086C0.713919 45.3337 0.670919 45.2578 0.62975 45.1808C0.588625 45.1038 0.549396 45.0259 0.512062 44.9469C0.474729 44.8681 0.439375 44.7883 0.406 44.7076C0.372583 44.627 0.341166 44.5456 0.311751 44.4634C0.282376 44.3813 0.255 44.2984 0.229625 44.2149C0.204291 44.1313 0.181021 44.0473 0.159813 43.9626C0.138604 43.8779 0.1195 43.7928 0.1025 43.7071C0.0854587 43.6216 0.0705412 43.5356 0.0577498 43.4492C0.0449171 43.3629 0.0342293 43.2763 0.0256872 43.1894C0.0171461 43.1026 0.0107288 43.0156 0.00643731 42.9284C0.00214577 42.8412 0 42.7539 0 42.6667L0 26.6667C0 26.5794 0.00214577 26.4922 0.00643731 26.405C0.0107288 26.3178 0.0171461 26.2308 0.0256872 26.1439C0.0342293 26.0571 0.0449171 25.9704 0.0577498 25.8841C0.0705412 25.7978 0.0854587 25.7118 0.1025 25.6262C0.1195 25.5406 0.138604 25.4554 0.159813 25.3708C0.181021 25.2861 0.204291 25.202 0.229625 25.1185C0.255 25.0349 0.282376 24.9521 0.311751 24.8699C0.341166 24.7878 0.372583 24.7063 0.406 24.6257C0.439375 24.5451 0.474729 24.4653 0.512062 24.3864C0.549396 24.3074 0.588625 24.2295 0.62975 24.1526C0.670919 24.0756 0.713919 23.9996 0.75875 23.9248C0.803625 23.8499 0.850313 23.7762 0.898813 23.7036C0.947313 23.6311 0.997563 23.5597 1.04956 23.4896C1.10156 23.4195 1.15525 23.3507 1.21063 23.2833C1.266 23.2157 1.32298 23.1497 1.38156 23.085C1.44019 23.0203 1.50038 22.9571 1.56213 22.8954C1.62383 22.8337 1.68702 22.7736 1.75169 22.7149C1.81636 22.6563 1.88242 22.5993 1.94987 22.5439C2.01737 22.4886 2.08617 22.4349 2.15625 22.3829C2.22638 22.3309 2.29773 22.2806 2.37031 22.2322C2.44286 22.1837 2.51656 22.137 2.59144 22.0921C2.66631 22.0473 2.74223 22.0042 2.81919 21.9631C2.89619 21.9219 2.97414 21.8827 3.05306 21.8454C3.13194 21.8081 3.21171 21.7728 3.29238 21.7393C3.373 21.7059 3.45439 21.6745 3.53656 21.6451C3.61877 21.6157 3.70163 21.5883 3.78513 21.563C3.86867 21.5377 3.95277 21.5144 4.03744 21.4932C4.12211 21.472 4.20725 21.4529 4.29288 21.4358C4.37846 21.4188 4.46442 21.4039 4.55075 21.3911C4.63708 21.3783 4.72369 21.3676 4.81056 21.359C4.89744 21.3504 4.98446 21.3441 5.07163 21.3398C5.15883 21.3354 5.24606 21.3333 5.33331 21.3333L16 21.3333ZM42.6667 0C42.7539 0 42.8412 0.00214577 42.9284 0.00643731C43.0156 0.0107288 43.1026 0.0171461 43.1894 0.0256872C43.2763 0.0342293 43.3629 0.0449171 43.4492 0.0577498C43.5356 0.0705412 43.6216 0.0854587 43.7071 0.1025C43.7928 0.1195 43.8779 0.138604 43.9626 0.159813C44.0473 0.181021 44.1313 0.204291 44.2149 0.229625C44.2984 0.255 44.3813 0.282376 44.4634 0.311751C44.5456 0.341166 44.627 0.372583 44.7076 0.406C44.7883 0.439375 44.8681 0.474729 44.9469 0.512062C45.0259 0.549396 45.1038 0.588625 45.1808 0.62975C45.2578 0.670919 45.3337 0.713919 45.4086 0.75875C45.4834 0.803625 45.5571 0.850313 45.6297 0.898813C45.7023 0.947313 45.7736 0.997563 45.8438 1.04956C45.9138 1.10156 45.9826 1.15525 46.0501 1.21063C46.1176 1.266 46.1836 1.32298 46.2483 1.38156C46.313 1.44019 46.3762 1.50038 46.4379 1.56213C46.4996 1.62383 46.5598 1.68702 46.6184 1.75169C46.677 1.81636 46.734 1.88242 46.7894 1.94987C46.8447 2.01737 46.8984 2.08617 46.9504 2.15625C47.0024 2.22638 47.0527 2.29773 47.1012 2.37031C47.1496 2.44286 47.1963 2.51656 47.2412 2.59144C47.2861 2.66631 47.3291 2.74223 47.3703 2.81919C47.4114 2.89619 47.4506 2.97414 47.4879 3.05306C47.5252 3.13194 47.5606 3.21171 47.594 3.29238C47.6274 3.373 47.6588 3.45439 47.6883 3.53656C47.7176 3.61877 47.745 3.70163 47.7704 3.78513C47.7957 3.86867 47.819 3.95277 47.8402 4.03744C47.8614 4.12211 47.8805 4.20725 47.8975 4.29288C47.9146 4.37846 47.9294 4.46442 47.9422 4.55075C47.9551 4.63708 47.9658 4.72369 47.9743 4.81056C47.9829 4.89744 47.9893 4.98446 47.9936 5.07163C47.9979 5.15883 48 5.24606 48 5.33331L48 21.3333C48 21.4206 47.9979 21.5078 47.9936 21.595C47.9893 21.6822 47.9829 21.7693 47.9743 21.8561C47.9658 21.9429 47.9551 22.0296 47.9422 22.1159C47.9294 22.2022 47.9146 22.2882 47.8975 22.3738C47.8805 22.4594 47.8614 22.5446 47.8402 22.6292C47.819 22.7139 47.7957 22.798 47.7704 22.8815C47.745 22.9651 47.7176 23.0479 47.6883 23.1301C47.6588 23.2122 47.6274 23.2937 47.594 23.3743C47.5606 23.4549 47.5252 23.5347 47.4879 23.6136C47.4506 23.6926 47.4114 23.7705 47.3703 23.8474C47.3291 23.9244 47.2861 24.0004 47.2412 24.0752C47.1963 24.1501 47.1496 24.2238 47.1012 24.2964C47.0527 24.3689 47.0024 24.4403 46.9504 24.5104C46.8984 24.5805 46.8447 24.6493 46.7894 24.7168C46.734 24.7843 46.677 24.8503 46.6184 24.915C46.5598 24.9797 46.4996 25.0429 46.4379 25.1046C46.3762 25.1663 46.313 25.2264 46.2483 25.2851C46.1836 25.3437 46.1176 25.4007 46.0501 25.4561C45.9826 25.5114 45.9138 25.5651 45.8438 25.6171C45.7736 25.6691 45.7023 25.7194 45.6297 25.7678C45.5571 25.8163 45.4834 25.863 45.4086 25.9079C45.3337 25.9528 45.2578 25.9958 45.1808 26.0369C45.1038 26.0781 45.0259 26.1173 44.9469 26.1546C44.8681 26.1919 44.7883 26.2273 44.7076 26.2607C44.627 26.2941 44.5456 26.3255 44.4634 26.3549C44.3812 26.3843 44.2984 26.4117 44.2149 26.437C44.1313 26.4623 44.0473 26.4856 43.9626 26.5068C43.8779 26.528 43.7928 26.5471 43.7071 26.5642C43.6216 26.5813 43.5356 26.5961 43.4492 26.6089C43.3629 26.6217 43.2763 26.6324 43.1894 26.641C43.1026 26.6496 43.0156 26.6559 42.9284 26.6602C42.8412 26.6646 42.7539 26.6667 42.6667 26.6667L32 26.6667C31.9127 26.6667 31.8255 26.6646 31.7383 26.6602C31.6511 26.6559 31.5641 26.6496 31.4773 26.641C31.3904 26.6324 31.3038 26.6217 31.2174 26.6089C31.1311 26.5961 31.0451 26.5813 30.9595 26.5642C30.8739 26.5471 30.7888 26.528 30.7041 26.5068C30.6194 26.4856 30.5354 26.4623 30.4518 26.437C30.3682 26.4117 30.2854 26.3843 30.2033 26.3549C30.1211 26.3255 30.0397 26.2941 29.959 26.2607C29.8784 26.2273 29.7986 26.1919 29.7197 26.1546C29.6408 26.1173 29.5628 26.0781 29.4859 26.0369C29.4089 25.9958 29.333 25.9528 29.2581 25.9079C29.1833 25.863 29.1095 25.8163 29.0369 25.7678C28.9644 25.7194 28.893 25.6691 28.8229 25.6171C28.7528 25.5651 28.684 25.5114 28.6166 25.4561C28.5491 25.4007 28.4831 25.3437 28.4184 25.2851C28.3537 25.2264 28.2904 25.1663 28.2288 25.1046C28.1671 25.0429 28.1069 24.9797 28.0483 24.915C27.9896 24.8503 27.9326 24.7843 27.8773 24.7168C27.8219 24.6493 27.7682 24.5805 27.7163 24.5104C27.6643 24.4403 27.614 24.3689 27.5655 24.2964C27.517 24.2238 27.4703 24.1501 27.4254 24.0752C27.3806 24.0004 27.3376 23.9244 27.2964 23.8474C27.2553 23.7705 27.216 23.6926 27.1787 23.6136C27.1414 23.5347 27.1061 23.4549 27.0726 23.3743C27.0393 23.2937 27.0079 23.2122 26.9784 23.1301C26.949 23.0479 26.9216 22.9651 26.8963 22.8815C26.871 22.798 26.8477 22.7139 26.8265 22.6292C26.8053 22.5446 26.7862 22.4594 26.7691 22.3738C26.7521 22.2882 26.7372 22.2022 26.7244 22.1159C26.7116 22.0296 26.7009 21.9429 26.6924 21.8561C26.6838 21.7693 26.6774 21.6822 26.6731 21.595C26.6688 21.5078 26.6667 21.4206 26.6667 21.3333L26.6667 5.33331C26.6667 5.24606 26.6688 5.15883 26.6731 5.07163C26.6774 4.98446 26.6838 4.89744 26.6924 4.81056C26.7009 4.72369 26.7116 4.63708 26.7244 4.55075C26.7372 4.46442 26.7521 4.37846 26.7691 4.29288C26.7862 4.20725 26.8053 4.12211 26.8265 4.03744C26.8477 3.95277 26.871 3.86867 26.8963 3.78513C26.9216 3.70163 26.949 3.61877 26.9784 3.53656C27.0079 3.45439 27.0393 3.373 27.0726 3.29238C27.1061 3.21171 27.1414 3.13194 27.1787 3.05306C27.216 2.97414 27.2553 2.89619 27.2964 2.81919C27.3376 2.74223 27.3806 2.66631 27.4254 2.59144C27.4703 2.51656 27.517 2.44286 27.5655 2.37031C27.614 2.29773 27.6643 2.22638 27.7163 2.15625C27.7682 2.08617 27.8219 2.01737 27.8773 1.94987C27.9326 1.88242 27.9896 1.81636 28.0483 1.75169C28.1069 1.68702 28.1671 1.62383 28.2288 1.56213C28.2904 1.50038 28.3537 1.44019 28.4184 1.38156C28.4831 1.32298 28.5491 1.266 28.6166 1.21063C28.684 1.15525 28.7528 1.10156 28.8229 1.04956C28.893 0.997563 28.9644 0.947313 29.0369 0.898813C29.1095 0.850313 29.1833 0.803625 29.2581 0.75875C29.333 0.713919 29.4089 0.670919 29.4859 0.62975C29.5628 0.588625 29.6408 0.549396 29.7197 0.512062C29.7986 0.474729 29.8784 0.439375 29.959 0.406C30.0397 0.372583 30.1211 0.341166 30.2033 0.311751C30.2854 0.282376 30.3682 0.255 30.4518 0.229625C30.5354 0.204291 30.6194 0.181021 30.7041 0.159813C30.7888 0.138604 30.8739 0.1195 30.9595 0.1025C31.0451 0.0854587 31.1311 0.0705412 31.2174 0.0577498C31.3038 0.0449171 31.3904 0.0342293 31.4773 0.0256872C31.5641 0.0171461 31.6511 0.0107288 31.7383 0.00643731C31.8255 0.00214577 31.9127 0 32 0L42.6667 0ZM16 0C16.0873 0 16.1745 0.00214577 16.2617 0.00643731C16.3489 0.0107288 16.4359 0.0171461 16.5228 0.0256872C16.6096 0.0342293 16.6963 0.0449171 16.7826 0.0577498C16.8689 0.0705412 16.9549 0.0854587 17.0405 0.1025C17.1261 0.1195 17.2112 0.138604 17.2959 0.159813C17.3806 0.181021 17.4646 0.204291 17.5482 0.229625C17.6318 0.255 17.7146 0.282376 17.7968 0.311751C17.8789 0.341166 17.9603 0.372583 18.041 0.406C18.1216 0.439375 18.2014 0.474729 18.2803 0.512062C18.3592 0.549396 18.4371 0.588625 18.5141 0.62975C18.5911 0.670919 18.667 0.713919 18.7419 0.75875C18.8167 0.803625 18.8905 0.850313 18.9631 0.898813C19.0356 0.947313 19.1069 0.997563 19.1771 1.04956C19.2472 1.10156 19.316 1.15525 19.3834 1.21063C19.4509 1.266 19.5169 1.32298 19.5816 1.38156C19.6463 1.44019 19.7096 1.50038 19.7712 1.56213C19.8329 1.62383 19.8931 1.68702 19.9517 1.75169C20.0104 1.81636 20.0674 1.88242 20.1228 1.94987C20.1781 2.01737 20.2318 2.08617 20.2838 2.15625C20.3358 2.22638 20.386 2.29773 20.4345 2.37031C20.483 2.44286 20.5297 2.51656 20.5746 2.59144C20.6194 2.66631 20.6624 2.74223 20.7036 2.81919C20.7448 2.89619 20.7839 2.97414 20.8213 3.05306C20.8586 3.13194 20.8939 3.21171 20.9274 3.29238C20.9608 3.373 20.9921 3.45439 21.0216 3.53656C21.051 3.61877 21.0784 3.70163 21.1037 3.78513C21.129 3.86867 21.1523 3.95277 21.1735 4.03744C21.1947 4.12211 21.2138 4.20725 21.2309 4.29288C21.2479 4.37846 21.2628 4.46442 21.2756 4.55075C21.2884 4.63708 21.2991 4.72369 21.3076 4.81056C21.3162 4.89744 21.3226 4.98446 21.3269 5.07163C21.3312 5.15883 21.3333 5.24606 21.3333 5.33331L21.3333 10.6667C21.3333 10.754 21.3312 10.8412 21.3269 10.9284C21.3226 11.0156 21.3162 11.1026 21.3076 11.1894C21.2991 11.2763 21.2884 11.3629 21.2756 11.4493C21.2628 11.5356 21.2479 11.6216 21.2309 11.7071C21.2138 11.7928 21.1947 11.8779 21.1735 11.9626C21.1523 12.0472 21.129 12.1313 21.1037 12.2149C21.0784 12.2984 21.051 12.3813 21.0216 12.4634C20.9921 12.5456 20.9608 12.627 20.9274 12.7076C20.8939 12.7883 20.8586 12.8681 20.8213 12.9469C20.7839 13.0259 20.7448 13.1038 20.7036 13.1808C20.6624 13.2578 20.6194 13.3337 20.5746 13.4086C20.5297 13.4834 20.483 13.5571 20.4345 13.6297C20.386 13.7023 20.3358 13.7736 20.2838 13.8438C20.2318 13.9138 20.1781 13.9826 20.1228 14.0501C20.0674 14.1176 20.0104 14.1836 19.9517 14.2483C19.8931 14.313 19.8329 14.3762 19.7712 14.4379C19.7096 14.4996 19.6463 14.5598 19.5816 14.6184C19.5169 14.677 19.4509 14.734 19.3834 14.7894C19.316 14.8448 19.2472 14.8984 19.1771 14.9504C19.1069 15.0024 19.0356 15.0527 18.9631 15.1012C18.8905 15.1497 18.8167 15.1964 18.7419 15.2413C18.667 15.2861 18.5911 15.3291 18.5141 15.3703C18.4371 15.4114 18.3592 15.4506 18.2803 15.4879C18.2014 15.5253 18.1216 15.5606 18.041 15.594C17.9603 15.6274 17.8789 15.6588 17.7968 15.6883C17.7146 15.7177 17.6318 15.7451 17.5482 15.7704C17.4646 15.7957 17.3806 15.819 17.2959 15.8402C17.2112 15.8614 17.1261 15.8805 17.0405 15.8975C16.9549 15.9146 16.8689 15.9294 16.7826 15.9423C16.6963 15.9551 16.6096 15.9658 16.5228 15.9743C16.4359 15.9829 16.3489 15.9893 16.2617 15.9936C16.1745 15.9979 16.0873 16 16 16L5.33331 16C5.24606 16 5.15883 15.9979 5.07163 15.9936C4.98446 15.9893 4.89744 15.9829 4.81056 15.9743C4.72369 15.9658 4.63708 15.9551 4.55075 15.9423C4.46442 15.9294 4.37846 15.9146 4.29288 15.8975C4.20725 15.8805 4.12211 15.8614 4.03744 15.8402C3.95277 15.819 3.86867 15.7957 3.78513 15.7704C3.70163 15.7451 3.61877 15.7177 3.53656 15.6883C3.45439 15.6588 3.373 15.6274 3.29238 15.594C3.21171 15.5606 3.13194 15.5253 3.05306 15.4879C2.97414 15.4506 2.89619 15.4114 2.81919 15.3703C2.74223 15.3291 2.66631 15.2861 2.59144 15.2413C2.51656 15.1964 2.44286 15.1497 2.37031 15.1012C2.29773 15.0527 2.22638 15.0024 2.15625 14.9504C2.08617 14.8984 2.01737 14.8448 1.94987 14.7894C1.88242 14.734 1.81636 14.677 1.75169 14.6184C1.68702 14.5598 1.62383 14.4996 1.56213 14.4379C1.50038 14.3762 1.44019 14.313 1.38156 14.2483C1.32298 14.1836 1.266 14.1176 1.21063 14.0501C1.15525 13.9826 1.10156 13.9138 1.04956 13.8438C0.997563 13.7736 0.947313 13.7023 0.898813 13.6297C0.850313 13.5571 0.803625 13.4834 0.75875 13.4086C0.713919 13.3337 0.670919 13.2578 0.62975 13.1808C0.588625 13.1038 0.549396 13.0259 0.512062 12.9469C0.474729 12.8681 0.439375 12.7883 0.406 12.7076C0.372583 12.627 0.341166 12.5456 0.311751 12.4634C0.282376 12.3813 0.255 12.2984 0.229625 12.2149C0.204291 12.1313 0.181021 12.0472 0.159813 11.9626C0.138604 11.8779 0.1195 11.7928 0.1025 11.7071C0.0854587 11.6216 0.0705412 11.5356 0.0577498 11.4493C0.0449171 11.3629 0.0342293 11.2763 0.0256872 11.1894C0.0171461 11.1026 0.0107288 11.0156 0.00643731 10.9284C0.00214577 10.8412 0 10.754 0 10.6667L0 5.33331C0 5.24606 0.00214577 5.15883 0.00643731 5.07163C0.0107288 4.98446 0.0171461 4.89744 0.0256872 4.81056C0.0342293 4.72369 0.0449171 4.63708 0.0577498 4.55075C0.0705412 4.46442 0.0854587 4.37846 0.1025 4.29288C0.1195 4.20725 0.138604 4.12211 0.159813 4.03744C0.181021 3.95277 0.204291 3.86867 0.229625 3.78513C0.255 3.70163 0.282376 3.61877 0.311751 3.53656C0.341166 3.45439 0.372583 3.373 0.406 3.29238C0.439375 3.21171 0.474729 3.13194 0.512062 3.05306C0.549396 2.97414 0.588625 2.89619 0.62975 2.81919C0.670919 2.74223 0.713919 2.66631 0.75875 2.59144C0.803625 2.51656 0.850313 2.44286 0.898813 2.37031C0.947313 2.29773 0.997563 2.22638 1.04956 2.15625C1.10156 2.08617 1.15525 2.01737 1.21063 1.94987C1.266 1.88242 1.32298 1.81636 1.38156 1.75169C1.44019 1.68702 1.50038 1.62383 1.56213 1.56213C1.62383 1.50038 1.68702 1.44019 1.75169 1.38156C1.81636 1.32298 1.88242 1.266 1.94987 1.21063C2.01737 1.15525 2.08617 1.10156 2.15625 1.04956C2.22638 0.997563 2.29773 0.947313 2.37031 0.898813C2.44286 0.850313 2.51656 0.803625 2.59144 0.75875C2.66631 0.713919 2.74223 0.670919 2.81919 0.62975C2.89619 0.588625 2.97414 0.549396 3.05306 0.512062C3.13194 0.474729 3.21171 0.439375 3.29238 0.406C3.373 0.372583 3.45439 0.341166 3.53656 0.311751C3.61877 0.282376 3.70163 0.255 3.78513 0.229625C3.86867 0.204291 3.95277 0.181021 4.03744 0.159813C4.12211 0.138604 4.20725 0.1195 4.29288 0.1025C4.37846 0.0854587 4.46442 0.0705412 4.55075 0.0577498C4.63708 0.0449171 4.72369 0.0342293 4.81056 0.0256872C4.89744 0.0171461 4.98446 0.0107288 5.07163 0.00643731C5.15883 0.00214577 5.24606 0 5.33331 0L16 0Z"   fill="#ABB8C7" >
</path>
</svg>
