<?xml version="1.0" encoding="utf-8"?>
<!-- Generator: Adobe Illustrator 23.1.0, SVG Export Plug-In . SVG Version: 6.00 Build 0)  -->
<svg version="1.1" id="图层_1" xmlns="http://www.w3.org/2000/svg" xmlns:xlink="http://www.w3.org/1999/xlink" x="0px" y="0px"
	 viewBox="0 0 240 162" style="enable-background:new 0 0 240 162;" xml:space="preserve">
<style type="text/css">
	.st0{fill:#324179;}
</style>
<path class="st0" d="M240.1,13.8c0,49.4,0,98.7,0,148.3c-80,0-160.4-0.1-240.4-0.1c0.1-2,0.2-4,0.2-6c0-45.4-0.2-91.1-0.1-136.5
	c0-1.9,0.2-3.8,0.4-6.2c2.3,1,4.5,2.1,5.9,2.8c23,12.1,47.5,15.1,72.7,10c19.5-3.9,38.7-9.5,57.9-14.8c22.8-6.2,45.6-12.6,69.6-9.3
	C218.2,3.6,230.1,6.2,240.1,13.8z"/>
</svg>
